<svg xmlns="http://www.w3.org/2000/svg" width="1200" height="720" viewBox="0 0 1200 720" role="img">
<style>text{font-family:Arial,sans-serif;fill:#1f2d3a}.axis{stroke:#536575;stroke-width:1.4}.grid{stroke:#d8e0e8;stroke-width:1}.line{fill:none;stroke-width:2.4}.dot{stroke:#fff;stroke-width:1.2}</style>
<rect x="0" y="0" width="1200" height="720" fill="#f7f9fb"/>
<text x="85" y="32" font-size="24" font-weight="700">V15 error vs Reynolds number</text>
<line class="axis" x1="85" y1="630" x2="1165" y2="630"/>
<line class="axis" x1="85" y1="55" x2="85" y2="630"/>
<line class="grid" x1="85" y1="630.0" x2="1165" y2="630.0"/>
<text x="18" y="634.0" font-size="12">0.00</text>
<line class="grid" x1="85" y1="515.0" x2="1165" y2="515.0"/>
<text x="18" y="519.0" font-size="12">5.41</text>
<line class="grid" x1="85" y1="400.0" x2="1165" y2="400.0"/>
<text x="18" y="404.0" font-size="12">10.83</text>
<line class="grid" x1="85" y1="285.0" x2="1165" y2="285.0"/>
<text x="18" y="289.0" font-size="12">16.24</text>
<line class="grid" x1="85" y1="170.0" x2="1165" y2="170.0"/>
<text x="18" y="174.0" font-size="12">21.66</text>
<line class="grid" x1="85" y1="55.0" x2="1165" y2="55.0"/>
<text x="18" y="59.0" font-size="12">27.07</text>
<text x="65.0" y="658" font-size="12">25</text>
<text x="281.0" y="658" font-size="12">58</text>
<text x="497.0" y="658" font-size="12">91</text>
<text x="713.0" y="658" font-size="12">124</text>
<text x="929.0" y="658" font-size="12">157</text>
<text x="1145.0" y="658" font-size="12">190</text>
<text x="590.0" y="692" font-size="14">Reynolds number</text>
<text x="18" y="39" font-size="14">relative L2</text>
<polyline class="line" points="85.0,628.0 138.0,628.9 183.4,629.2 219.1,629.3 231.7,622.9 244.4,624.7 262.5,595.6 383.6,628.8 579.9,629.2 898.3,629.4 1165.0,629.5" stroke="#1f77b4"/>
<circle class="dot" cx="85.0" cy="628.0" r="4" fill="#1f77b4"/>
<circle class="dot" cx="138.0" cy="628.9" r="4" fill="#1f77b4"/>
<circle class="dot" cx="183.4" cy="629.2" r="4" fill="#1f77b4"/>
<circle class="dot" cx="219.1" cy="629.3" r="4" fill="#1f77b4"/>
<circle class="dot" cx="231.7" cy="622.9" r="4" fill="#1f77b4"/>
<circle class="dot" cx="244.4" cy="624.7" r="4" fill="#1f77b4"/>
<circle class="dot" cx="262.5" cy="595.6" r="4" fill="#1f77b4"/>
<circle class="dot" cx="383.6" cy="628.8" r="4" fill="#1f77b4"/>
<circle class="dot" cx="579.9" cy="629.2" r="4" fill="#1f77b4"/>
<circle class="dot" cx="898.3" cy="629.4" r="4" fill="#1f77b4"/>
<circle class="dot" cx="1165.0" cy="629.5" r="4" fill="#1f77b4"/>
<rect x="100" y="62" width="14" height="4" fill="#1f77b4"/>
<text x="122" y="68" font-size="13">one-step a</text>
<polyline class="line" points="85.0,535.3 138.0,575.6 183.4,609.4 219.1,614.9 231.7,620.7 244.4,613.2 262.5,462.3 383.6,627.9 579.9,628.7 898.3,629.1 1165.0,629.1" stroke="#ff7f0e"/>
<circle class="dot" cx="85.0" cy="535.3" r="4" fill="#ff7f0e"/>
<circle class="dot" cx="138.0" cy="575.6" r="4" fill="#ff7f0e"/>
<circle class="dot" cx="183.4" cy="609.4" r="4" fill="#ff7f0e"/>
<circle class="dot" cx="219.1" cy="614.9" r="4" fill="#ff7f0e"/>
<circle class="dot" cx="231.7" cy="620.7" r="4" fill="#ff7f0e"/>
<circle class="dot" cx="244.4" cy="613.2" r="4" fill="#ff7f0e"/>
<circle class="dot" cx="262.5" cy="462.3" r="4" fill="#ff7f0e"/>
<circle class="dot" cx="383.6" cy="627.9" r="4" fill="#ff7f0e"/>
<circle class="dot" cx="579.9" cy="628.7" r="4" fill="#ff7f0e"/>
<circle class="dot" cx="898.3" cy="629.1" r="4" fill="#ff7f0e"/>
<circle class="dot" cx="1165.0" cy="629.1" r="4" fill="#ff7f0e"/>
<rect x="320" y="62" width="14" height="4" fill="#ff7f0e"/>
<text x="342" y="68" font-size="13">one-step b</text>
<polyline class="line" points="85.0,616.7 138.0,620.8 183.4,623.4 219.1,625.2 231.7,608.2 244.4,614.2 262.5,533.9 383.6,626.1 579.9,629.1 898.3,629.2 1165.0,628.8" stroke="#2ca02c"/>
<circle class="dot" cx="85.0" cy="616.7" r="4" fill="#2ca02c"/>
<circle class="dot" cx="138.0" cy="620.8" r="4" fill="#2ca02c"/>
<circle class="dot" cx="183.4" cy="623.4" r="4" fill="#2ca02c"/>
<circle class="dot" cx="219.1" cy="625.2" r="4" fill="#2ca02c"/>
<circle class="dot" cx="231.7" cy="608.2" r="4" fill="#2ca02c"/>
<circle class="dot" cx="244.4" cy="614.2" r="4" fill="#2ca02c"/>
<circle class="dot" cx="262.5" cy="533.9" r="4" fill="#2ca02c"/>
<circle class="dot" cx="383.6" cy="626.1" r="4" fill="#2ca02c"/>
<circle class="dot" cx="579.9" cy="629.1" r="4" fill="#2ca02c"/>
<circle class="dot" cx="898.3" cy="629.2" r="4" fill="#2ca02c"/>
<circle class="dot" cx="1165.0" cy="628.8" r="4" fill="#2ca02c"/>
<rect x="540" y="62" width="14" height="4" fill="#2ca02c"/>
<text x="562" y="68" font-size="13">rollout a</text>
<polyline class="line" points="85.0,530.7 138.0,561.0 183.4,605.2 219.1,614.3 231.7,587.6 244.4,593.0 262.5,97.6 383.6,624.1 579.9,628.1 898.3,628.8 1165.0,628.5" stroke="#d62728"/>
<circle class="dot" cx="85.0" cy="530.7" r="4" fill="#d62728"/>
<circle class="dot" cx="138.0" cy="561.0" r="4" fill="#d62728"/>
<circle class="dot" cx="183.4" cy="605.2" r="4" fill="#d62728"/>
<circle class="dot" cx="219.1" cy="614.3" r="4" fill="#d62728"/>
<circle class="dot" cx="231.7" cy="587.6" r="4" fill="#d62728"/>
<circle class="dot" cx="244.4" cy="593.0" r="4" fill="#d62728"/>
<circle class="dot" cx="262.5" cy="97.6" r="4" fill="#d62728"/>
<circle class="dot" cx="383.6" cy="624.1" r="4" fill="#d62728"/>
<circle class="dot" cx="579.9" cy="628.1" r="4" fill="#d62728"/>
<circle class="dot" cx="898.3" cy="628.8" r="4" fill="#d62728"/>
<circle class="dot" cx="1165.0" cy="628.5" r="4" fill="#d62728"/>
<rect x="100" y="86" width="14" height="4" fill="#d62728"/>
<text x="122" y="92" font-size="13">rollout b</text>
<polyline class="line" points="85.0,593.4 138.0,609.5 183.4,615.7 219.1,618.1 231.7,533.9 244.4,561.2 262.5,548.6 383.6,626.8 579.9,625.4 898.3,625.6 1165.0,626.2" stroke="#9467bd"/>
<circle class="dot" cx="85.0" cy="593.4" r="4" fill="#9467bd"/>
<circle class="dot" cx="138.0" cy="609.5" r="4" fill="#9467bd"/>
<circle class="dot" cx="183.4" cy="615.7" r="4" fill="#9467bd"/>
<circle class="dot" cx="219.1" cy="618.1" r="4" fill="#9467bd"/>
<circle class="dot" cx="231.7" cy="533.9" r="4" fill="#9467bd"/>
<circle class="dot" cx="244.4" cy="561.2" r="4" fill="#9467bd"/>
<circle class="dot" cx="262.5" cy="548.6" r="4" fill="#9467bd"/>
<circle class="dot" cx="383.6" cy="626.8" r="4" fill="#9467bd"/>
<circle class="dot" cx="579.9" cy="625.4" r="4" fill="#9467bd"/>
<circle class="dot" cx="898.3" cy="625.6" r="4" fill="#9467bd"/>
<circle class="dot" cx="1165.0" cy="626.2" r="4" fill="#9467bd"/>
<rect x="320" y="86" width="14" height="4" fill="#9467bd"/>
<text x="342" y="92" font-size="13">RHS</text>
<polyline class="line" points="85.0,534.3 138.0,574.9 183.4,609.5 219.1,615.2 231.7,621.9 244.4,615.3 262.5,474.2 383.6,629.1 579.9,629.6 898.3,629.5 1165.0,629.3" stroke="#8c564b"/>
<circle class="dot" cx="85.0" cy="534.3" r="4" fill="#8c564b"/>
<circle class="dot" cx="138.0" cy="574.9" r="4" fill="#8c564b"/>
<circle class="dot" cx="183.4" cy="609.5" r="4" fill="#8c564b"/>
<circle class="dot" cx="219.1" cy="615.2" r="4" fill="#8c564b"/>
<circle class="dot" cx="231.7" cy="621.9" r="4" fill="#8c564b"/>
<circle class="dot" cx="244.4" cy="615.3" r="4" fill="#8c564b"/>
<circle class="dot" cx="262.5" cy="474.2" r="4" fill="#8c564b"/>
<circle class="dot" cx="383.6" cy="629.1" r="4" fill="#8c564b"/>
<circle class="dot" cx="579.9" cy="629.6" r="4" fill="#8c564b"/>
<circle class="dot" cx="898.3" cy="629.5" r="4" fill="#8c564b"/>
<circle class="dot" cx="1165.0" cy="629.3" r="4" fill="#8c564b"/>
<rect x="540" y="86" width="14" height="4" fill="#8c564b"/>
<text x="562" y="92" font-size="13">pressure head</text>
</svg>