<svg xmlns="http://www.w3.org/2000/svg" width="1180" height="690" viewBox="0 0 1180 690">
<style>text{font-family:Arial,sans-serif;fill:#1f2d3a}.axis{stroke:#4d5d6c;stroke-width:1.4}.grid{stroke:#d8e0e8;stroke-width:1}</style>
<rect width="1180" height="690" fill="#f8fafc"/>
<text x="85" y="34" font-size="24" font-weight="700">Pressure error distribution: one_step sample</text>
<line class="axis" x1="85" y1="605" x2="1145" y2="605"/>
<line class="axis" x1="85" y1="55" x2="85" y2="605"/>
<rect x="75.2" y="585.8" width="9.3" height="19.2" fill="#1f77b4" opacity="0.68"/>
<rect x="114.4" y="549.3" width="9.3" height="55.7" fill="#1f77b4" opacity="0.68"/>
<rect x="153.7" y="479.2" width="9.3" height="125.8" fill="#1f77b4" opacity="0.68"/>
<rect x="193.0" y="482.7" width="9.3" height="122.3" fill="#1f77b4" opacity="0.68"/>
<rect x="232.2" y="534.0" width="9.3" height="71.0" fill="#1f77b4" opacity="0.68"/>
<rect x="271.5" y="554.2" width="9.3" height="50.8" fill="#1f77b4" opacity="0.68"/>
<rect x="310.7" y="578.4" width="9.3" height="26.6" fill="#1f77b4" opacity="0.68"/>
<rect x="350.0" y="583.3" width="9.3" height="21.7" fill="#1f77b4" opacity="0.68"/>
<rect x="389.3" y="592.2" width="9.3" height="12.8" fill="#1f77b4" opacity="0.68"/>
<rect x="428.5" y="592.7" width="9.3" height="12.3" fill="#1f77b4" opacity="0.68"/>
<rect x="467.8" y="596.6" width="9.3" height="8.4" fill="#1f77b4" opacity="0.68"/>
<rect x="507.0" y="599.1" width="9.3" height="5.9" fill="#1f77b4" opacity="0.68"/>
<rect x="546.3" y="594.1" width="9.3" height="10.9" fill="#1f77b4" opacity="0.68"/>
<rect x="585.6" y="600.1" width="9.3" height="4.9" fill="#1f77b4" opacity="0.68"/>
<rect x="624.8" y="591.7" width="9.3" height="13.3" fill="#1f77b4" opacity="0.68"/>
<rect x="664.1" y="597.6" width="9.3" height="7.4" fill="#1f77b4" opacity="0.68"/>
<rect x="703.3" y="595.6" width="9.3" height="9.4" fill="#1f77b4" opacity="0.68"/>
<rect x="742.6" y="593.7" width="9.3" height="11.3" fill="#1f77b4" opacity="0.68"/>
<rect x="781.9" y="596.6" width="9.3" height="8.4" fill="#1f77b4" opacity="0.68"/>
<rect x="821.1" y="598.1" width="9.3" height="6.9" fill="#1f77b4" opacity="0.68"/>
<rect x="860.4" y="598.6" width="9.3" height="6.4" fill="#1f77b4" opacity="0.68"/>
<rect x="899.6" y="601.5" width="9.3" height="3.5" fill="#1f77b4" opacity="0.68"/>
<rect x="938.9" y="602.5" width="9.3" height="2.5" fill="#1f77b4" opacity="0.68"/>
<rect x="978.1" y="605.0" width="9.3" height="0.0" fill="#1f77b4" opacity="0.68"/>
<rect x="1017.4" y="604.0" width="9.3" height="1.0" fill="#1f77b4" opacity="0.68"/>
<rect x="1056.7" y="605.0" width="9.3" height="0.0" fill="#1f77b4" opacity="0.68"/>
<rect x="1095.9" y="604.5" width="9.3" height="0.5" fill="#1f77b4" opacity="0.68"/>
<rect x="85.0" y="605.0" width="9.3" height="0.0" fill="#ff7f0e" opacity="0.68"/>
<rect x="124.3" y="605.0" width="9.3" height="0.0" fill="#ff7f0e" opacity="0.68"/>
<rect x="163.5" y="605.0" width="9.3" height="0.0" fill="#ff7f0e" opacity="0.68"/>
<rect x="202.8" y="605.0" width="9.3" height="0.0" fill="#ff7f0e" opacity="0.68"/>
<rect x="242.0" y="602.5" width="9.3" height="2.5" fill="#ff7f0e" opacity="0.68"/>
<rect x="281.3" y="599.6" width="9.3" height="5.4" fill="#ff7f0e" opacity="0.68"/>
<rect x="320.6" y="590.7" width="9.3" height="14.3" fill="#ff7f0e" opacity="0.68"/>
<rect x="359.8" y="572.9" width="9.3" height="32.1" fill="#ff7f0e" opacity="0.68"/>
<rect x="399.1" y="505.9" width="9.3" height="99.1" fill="#ff7f0e" opacity="0.68"/>
<rect x="438.3" y="436.3" width="9.3" height="168.7" fill="#ff7f0e" opacity="0.68"/>
<rect x="477.6" y="547.3" width="9.3" height="57.7" fill="#ff7f0e" opacity="0.68"/>
<rect x="516.9" y="558.6" width="9.3" height="46.4" fill="#ff7f0e" opacity="0.68"/>
<rect x="556.1" y="566.0" width="9.3" height="39.0" fill="#ff7f0e" opacity="0.68"/>
<rect x="595.4" y="579.8" width="9.3" height="25.2" fill="#ff7f0e" opacity="0.68"/>
<rect x="634.6" y="586.3" width="9.3" height="18.7" fill="#ff7f0e" opacity="0.68"/>
<rect x="673.9" y="592.2" width="9.3" height="12.8" fill="#ff7f0e" opacity="0.68"/>
<rect x="713.1" y="595.1" width="9.3" height="9.9" fill="#ff7f0e" opacity="0.68"/>
<rect x="752.4" y="596.6" width="9.3" height="8.4" fill="#ff7f0e" opacity="0.68"/>
<rect x="791.7" y="596.1" width="9.3" height="8.9" fill="#ff7f0e" opacity="0.68"/>
<rect x="830.9" y="593.7" width="9.3" height="11.3" fill="#ff7f0e" opacity="0.68"/>
<rect x="870.2" y="597.1" width="9.3" height="7.9" fill="#ff7f0e" opacity="0.68"/>
<rect x="909.4" y="600.1" width="9.3" height="4.9" fill="#ff7f0e" opacity="0.68"/>
<rect x="948.7" y="597.6" width="9.3" height="7.4" fill="#ff7f0e" opacity="0.68"/>
<rect x="988.0" y="597.1" width="9.3" height="7.9" fill="#ff7f0e" opacity="0.68"/>
<rect x="1027.2" y="595.1" width="9.3" height="9.9" fill="#ff7f0e" opacity="0.68"/>
<rect x="1066.5" y="597.6" width="9.3" height="7.4" fill="#ff7f0e" opacity="0.68"/>
<rect x="1105.7" y="591.7" width="9.3" height="13.3" fill="#ff7f0e" opacity="0.68"/>
<rect x="94.8" y="55.0" width="9.3" height="550.0" fill="#2ca02c" opacity="0.68"/>
<rect x="134.1" y="599.1" width="9.3" height="5.9" fill="#2ca02c" opacity="0.68"/>
<rect x="173.3" y="598.6" width="9.3" height="6.4" fill="#2ca02c" opacity="0.68"/>
<rect x="212.6" y="597.1" width="9.3" height="7.9" fill="#2ca02c" opacity="0.68"/>
<rect x="251.9" y="594.6" width="9.3" height="10.4" fill="#2ca02c" opacity="0.68"/>
<rect x="291.1" y="598.6" width="9.3" height="6.4" fill="#2ca02c" opacity="0.68"/>
<rect x="330.4" y="599.6" width="9.3" height="5.4" fill="#2ca02c" opacity="0.68"/>
<rect x="369.6" y="603.5" width="9.3" height="1.5" fill="#2ca02c" opacity="0.68"/>
<rect x="408.9" y="601.5" width="9.3" height="3.5" fill="#2ca02c" opacity="0.68"/>
<rect x="448.1" y="603.0" width="9.3" height="2.0" fill="#2ca02c" opacity="0.68"/>
<rect x="487.4" y="603.0" width="9.3" height="2.0" fill="#2ca02c" opacity="0.68"/>
<rect x="526.7" y="602.0" width="9.3" height="3.0" fill="#2ca02c" opacity="0.68"/>
<rect x="565.9" y="604.0" width="9.3" height="1.0" fill="#2ca02c" opacity="0.68"/>
<rect x="605.2" y="603.5" width="9.3" height="1.5" fill="#2ca02c" opacity="0.68"/>
<rect x="644.4" y="604.0" width="9.3" height="1.0" fill="#2ca02c" opacity="0.68"/>
<rect x="683.7" y="603.0" width="9.3" height="2.0" fill="#2ca02c" opacity="0.68"/>
<rect x="723.0" y="605.0" width="9.3" height="0.0" fill="#2ca02c" opacity="0.68"/>
<rect x="762.2" y="603.5" width="9.3" height="1.5" fill="#2ca02c" opacity="0.68"/>
<rect x="801.5" y="604.0" width="9.3" height="1.0" fill="#2ca02c" opacity="0.68"/>
<rect x="840.7" y="603.5" width="9.3" height="1.5" fill="#2ca02c" opacity="0.68"/>
<rect x="880.0" y="603.5" width="9.3" height="1.5" fill="#2ca02c" opacity="0.68"/>
<rect x="919.3" y="603.0" width="9.3" height="2.0" fill="#2ca02c" opacity="0.68"/>
<rect x="958.5" y="604.0" width="9.3" height="1.0" fill="#2ca02c" opacity="0.68"/>
<rect x="997.8" y="605.0" width="9.3" height="0.0" fill="#2ca02c" opacity="0.68"/>
<rect x="1037.0" y="604.5" width="9.3" height="0.5" fill="#2ca02c" opacity="0.68"/>
<rect x="1076.3" y="605.0" width="9.3" height="0.0" fill="#2ca02c" opacity="0.68"/>
<rect x="1115.6" y="604.5" width="9.3" height="0.5" fill="#2ca02c" opacity="0.68"/>
<text x="71.0" y="633" font-size="12">0.00</text>
<text x="283.0" y="633" font-size="12">0.49</text>
<text x="495.0" y="633" font-size="12">0.98</text>
<text x="707.0" y="633" font-size="12">1.47</text>
<text x="919.0" y="633" font-size="12">1.96</text>
<text x="1131.0" y="633" font-size="12">2.45</text>
<line class="grid" x1="85" y1="605.0" x2="1145" y2="605.0"/>
<text x="24" y="609.0" font-size="12">0</text>
<line class="grid" x1="85" y1="467.5" x2="1145" y2="467.5"/>
<text x="24" y="471.5" font-size="12">279</text>
<line class="grid" x1="85" y1="330.0" x2="1145" y2="330.0"/>
<text x="24" y="334.0" font-size="12">558</text>
<line class="grid" x1="85" y1="192.5" x2="1145" y2="192.5"/>
<text x="24" y="196.5" font-size="12">836</text>
<line class="grid" x1="85" y1="55.0" x2="1145" y2="55.0"/>
<text x="24" y="59.0" font-size="12">1115</text>
<rect x="103" y="63" width="16" height="10" fill="#1f77b4" opacity="0.75"/>
<text x="127" y="72" font-size="13">BaseOnly</text>
<rect x="348" y="63" width="16" height="10" fill="#ff7f0e" opacity="0.75"/>
<text x="372" y="72" font-size="13">ResidualOnlyState</text>
<rect x="593" y="63" width="16" height="10" fill="#2ca02c" opacity="0.75"/>
<text x="617" y="72" font-size="13">ClosureCurrent</text>
<text x="580.0" y="665" font-size="14">relative L2</text>
</svg>