<svg xmlns="http://www.w3.org/2000/svg" width="1180" height="700" viewBox="0 0 1180 700">
<style>text{font-family:Arial,sans-serif;fill:#1f2d3a}.axis{stroke:#4d5d6c;stroke-width:1.4}.grid{stroke:#d8e0e8;stroke-width:1}</style>
<rect width="1180" height="700" fill="#f8fafc"/>
<text x="85" y="34" font-size="24" font-weight="700">Pressure one-step relative L2 vs Re</text>
<line class="axis" x1="85" y1="615" x2="1145" y2="615"/>
<line class="axis" x1="85" y1="55" x2="85" y2="615"/>
<line class="grid" x1="85" y1="615.0" x2="1145" y2="615.0"/>
<text x="18" y="619.0" font-size="12">0.00</text>
<line class="grid" x1="85" y1="503.0" x2="1145" y2="503.0"/>
<text x="18" y="507.0" font-size="12">0.33</text>
<line class="grid" x1="85" y1="391.0" x2="1145" y2="391.0"/>
<text x="18" y="395.0" font-size="12">0.66</text>
<line class="grid" x1="85" y1="279.0" x2="1145" y2="279.0"/>
<text x="18" y="283.0" font-size="12">1.00</text>
<line class="grid" x1="85" y1="167.0" x2="1145" y2="167.0"/>
<text x="18" y="171.0" font-size="12">1.33</text>
<line class="grid" x1="85" y1="55.0" x2="1145" y2="55.0"/>
<text x="18" y="59.0" font-size="12">1.66</text>
<text x="67.0" y="643" font-size="12">50</text>
<text x="279.0" y="643" font-size="12">100</text>
<text x="491.0" y="643" font-size="12">150</text>
<text x="703.0" y="643" font-size="12">200</text>
<text x="915.0" y="643" font-size="12">250</text>
<text x="1127.0" y="643" font-size="12">300</text>
<text x="580.0" y="675" font-size="14">Reynolds number</text>
<polyline points="85.0,165.7 204.1,327.7 322.4,427.8 435.8,471.3 554.7,500.2 667.1,511.7 785.7,505.3 909.1,513.0 1036.4,506.6 1145.0,501.2" fill="none" stroke="#1f77b4" stroke-width="2.5"/>
<circle cx="85.0" cy="165.7" r="4" fill="#1f77b4" stroke="#fff"/>
<circle cx="204.1" cy="327.7" r="4" fill="#1f77b4" stroke="#fff"/>
<circle cx="322.4" cy="427.8" r="4" fill="#1f77b4" stroke="#fff"/>
<circle cx="435.8" cy="471.3" r="4" fill="#1f77b4" stroke="#fff"/>
<circle cx="554.7" cy="500.2" r="4" fill="#1f77b4" stroke="#fff"/>
<circle cx="667.1" cy="511.7" r="4" fill="#1f77b4" stroke="#fff"/>
<circle cx="785.7" cy="505.3" r="4" fill="#1f77b4" stroke="#fff"/>
<circle cx="909.1" cy="513.0" r="4" fill="#1f77b4" stroke="#fff"/>
<circle cx="1036.4" cy="506.6" r="4" fill="#1f77b4" stroke="#fff"/>
<circle cx="1145.0" cy="501.2" r="4" fill="#1f77b4" stroke="#fff"/>
<rect x="103" y="65" width="18" height="5" fill="#1f77b4"/>
<text x="129" y="71" font-size="13">BaseOnly</text>
<polyline points="85.0,96.5 204.1,193.2 322.4,251.2 435.8,267.5 554.7,281.3 667.1,293.7 785.7,307.4 909.1,317.4 1036.4,319.8 1145.0,330.2" fill="none" stroke="#ff7f0e" stroke-width="2.5"/>
<circle cx="85.0" cy="96.5" r="4" fill="#ff7f0e" stroke="#fff"/>
<circle cx="204.1" cy="193.2" r="4" fill="#ff7f0e" stroke="#fff"/>
<circle cx="322.4" cy="251.2" r="4" fill="#ff7f0e" stroke="#fff"/>
<circle cx="435.8" cy="267.5" r="4" fill="#ff7f0e" stroke="#fff"/>
<circle cx="554.7" cy="281.3" r="4" fill="#ff7f0e" stroke="#fff"/>
<circle cx="667.1" cy="293.7" r="4" fill="#ff7f0e" stroke="#fff"/>
<circle cx="785.7" cy="307.4" r="4" fill="#ff7f0e" stroke="#fff"/>
<circle cx="909.1" cy="317.4" r="4" fill="#ff7f0e" stroke="#fff"/>
<circle cx="1036.4" cy="319.8" r="4" fill="#ff7f0e" stroke="#fff"/>
<circle cx="1145.0" cy="330.2" r="4" fill="#ff7f0e" stroke="#fff"/>
<rect x="348" y="65" width="18" height="5" fill="#ff7f0e"/>
<text x="374" y="71" font-size="13">ResidualOnlyState</text>
<polyline points="85.0,287.7 204.1,596.1 322.4,609.2 435.8,609.8 554.7,608.2 667.1,609.0 785.7,608.8 909.1,608.0 1036.4,606.9 1145.0,597.6" fill="none" stroke="#2ca02c" stroke-width="2.5"/>
<circle cx="85.0" cy="287.7" r="4" fill="#2ca02c" stroke="#fff"/>
<circle cx="204.1" cy="596.1" r="4" fill="#2ca02c" stroke="#fff"/>
<circle cx="322.4" cy="609.2" r="4" fill="#2ca02c" stroke="#fff"/>
<circle cx="435.8" cy="609.8" r="4" fill="#2ca02c" stroke="#fff"/>
<circle cx="554.7" cy="608.2" r="4" fill="#2ca02c" stroke="#fff"/>
<circle cx="667.1" cy="609.0" r="4" fill="#2ca02c" stroke="#fff"/>
<circle cx="785.7" cy="608.8" r="4" fill="#2ca02c" stroke="#fff"/>
<circle cx="909.1" cy="608.0" r="4" fill="#2ca02c" stroke="#fff"/>
<circle cx="1036.4" cy="606.9" r="4" fill="#2ca02c" stroke="#fff"/>
<circle cx="1145.0" cy="597.6" r="4" fill="#2ca02c" stroke="#fff"/>
<rect x="593" y="65" width="18" height="5" fill="#2ca02c"/>
<text x="619" y="71" font-size="13">ClosureCurrent</text>
</svg>