<svg xmlns="http://www.w3.org/2000/svg" width="1180" height="700" viewBox="0 0 1180 700">
<style>text{font-family:Arial,sans-serif;fill:#1f2d3a}.axis{stroke:#536575;stroke-width:1.3}.grid{stroke:#d8e0e8;stroke-width:1}.line{fill:none;stroke-width:2.5}.dot{stroke:#fff;stroke-width:1.2}</style>
<rect width="1180" height="700" fill="#f8fafc"/>
<text x="88" y="34" font-size="23" font-weight="700">V15 Pressure BaseOnly error vs Re</text>
<line class="axis" x1="88" y1="614" x2="1145" y2="614"/>
<line class="axis" x1="88" y1="58" x2="88" y2="614"/>
<line class="grid" x1="88" y1="614.0" x2="1145" y2="614.0"/>
<text x="18" y="618.0" font-size="12">0</text>
<line class="grid" x1="88" y1="502.8" x2="1145" y2="502.8"/>
<text x="18" y="506.8" font-size="12">128</text>
<line class="grid" x1="88" y1="391.6" x2="1145" y2="391.6"/>
<text x="18" y="395.6" font-size="12">255</text>
<line class="grid" x1="88" y1="280.4" x2="1145" y2="280.4"/>
<text x="18" y="284.4" font-size="12">383</text>
<line class="grid" x1="88" y1="169.2" x2="1145" y2="169.2"/>
<text x="18" y="173.2" font-size="12">511</text>
<line class="grid" x1="88" y1="58.0" x2="1145" y2="58.0"/>
<text x="18" y="62.0" font-size="12">639</text>
<text x="70.0" y="640" font-size="12">25</text>
<text x="281.4" y="640" font-size="12">58</text>
<text x="492.8" y="640" font-size="12">91</text>
<text x="704.2" y="640" font-size="12">124</text>
<text x="915.6" y="640" font-size="12">157</text>
<text x="1127.0" y="640" font-size="12">190</text>
<polyline class="line" points="88.0,566.2 139.9,553.9 184.3,565.2 219.2,570.4 231.6,556.1 244.0,567.1 261.7,99.2 380.2,612.7 572.4,613.2 884.0,613.3 1145.0,613.4" stroke="#1f77b4"/>
<circle class="dot" cx="88.0" cy="566.2" r="4" fill="#1f77b4"/>
<circle class="dot" cx="139.9" cy="553.9" r="4" fill="#1f77b4"/>
<circle class="dot" cx="184.3" cy="565.2" r="4" fill="#1f77b4"/>
<circle class="dot" cx="219.2" cy="570.4" r="4" fill="#1f77b4"/>
<circle class="dot" cx="231.6" cy="556.1" r="4" fill="#1f77b4"/>
<circle class="dot" cx="244.0" cy="567.1" r="4" fill="#1f77b4"/>
<circle class="dot" cx="261.7" cy="99.2" r="4" fill="#1f77b4"/>
<circle class="dot" cx="380.2" cy="612.7" r="4" fill="#1f77b4"/>
<circle class="dot" cx="572.4" cy="613.2" r="4" fill="#1f77b4"/>
<circle class="dot" cx="884.0" cy="613.3" r="4" fill="#1f77b4"/>
<circle class="dot" cx="1145.0" cy="613.4" r="4" fill="#1f77b4"/>
<line x1="98" y1="78" x2="122" y2="78" stroke="#1f77b4" stroke-width="3"/>
<text x="130" y="82" font-size="13">V15_Base</text>
<polyline class="line" points="88.0,572.7 139.9,564.9 184.3,570.9 219.2,574.2 231.6,555.2 244.0,566.4 261.7,102.0 380.2,612.8 572.4,613.1 884.0,613.3 1145.0,613.4" stroke="#2ca02c"/>
<circle class="dot" cx="88.0" cy="572.7" r="4" fill="#2ca02c"/>
<circle class="dot" cx="139.9" cy="564.9" r="4" fill="#2ca02c"/>
<circle class="dot" cx="184.3" cy="570.9" r="4" fill="#2ca02c"/>
<circle class="dot" cx="219.2" cy="574.2" r="4" fill="#2ca02c"/>
<circle class="dot" cx="231.6" cy="555.2" r="4" fill="#2ca02c"/>
<circle class="dot" cx="244.0" cy="566.4" r="4" fill="#2ca02c"/>
<circle class="dot" cx="261.7" cy="102.0" r="4" fill="#2ca02c"/>
<circle class="dot" cx="380.2" cy="612.8" r="4" fill="#2ca02c"/>
<circle class="dot" cx="572.4" cy="613.1" r="4" fill="#2ca02c"/>
<circle class="dot" cx="884.0" cy="613.3" r="4" fill="#2ca02c"/>
<circle class="dot" cx="1145.0" cy="613.4" r="4" fill="#2ca02c"/>
<line x1="98" y1="100" x2="122" y2="100" stroke="#2ca02c" stroke-width="3"/>
<text x="130" y="104" font-size="13">V15_LargeROM</text>
<polyline class="line" points="88.0,566.2 139.9,553.9 184.3,565.2 219.2,570.4 231.6,556.1 244.0,567.1 261.7,99.2 380.2,612.7 572.4,613.2 884.0,613.3 1145.0,613.4" stroke="#d62728"/>
<circle class="dot" cx="88.0" cy="566.2" r="4" fill="#d62728"/>
<circle class="dot" cx="139.9" cy="553.9" r="4" fill="#d62728"/>
<circle class="dot" cx="184.3" cy="565.2" r="4" fill="#d62728"/>
<circle class="dot" cx="219.2" cy="570.4" r="4" fill="#d62728"/>
<circle class="dot" cx="231.6" cy="556.1" r="4" fill="#d62728"/>
<circle class="dot" cx="244.0" cy="567.1" r="4" fill="#d62728"/>
<circle class="dot" cx="261.7" cy="99.2" r="4" fill="#d62728"/>
<circle class="dot" cx="380.2" cy="612.7" r="4" fill="#d62728"/>
<circle class="dot" cx="572.4" cy="613.2" r="4" fill="#d62728"/>
<circle class="dot" cx="884.0" cy="613.3" r="4" fill="#d62728"/>
<circle class="dot" cx="1145.0" cy="613.4" r="4" fill="#d62728"/>
<line x1="98" y1="122" x2="122" y2="122" stroke="#d62728" stroke-width="3"/>
<text x="130" y="126" font-size="13">V15_BalancedTraining</text>
</svg>