<svg xmlns="http://www.w3.org/2000/svg" width="1180" height="720" viewBox="0 0 1180 720" role="img">
<style>text{font-family:Arial,sans-serif;fill:#1f2d3a}.axis{stroke:#536575;stroke-width:1.4}.grid{stroke:#d8e0e8;stroke-width:1}.line{fill:none;stroke-width:2.4}.dot{stroke:#fff;stroke-width:1.2}</style>
<rect x="0" y="0" width="1180" height="720" fill="#f8fafc"/>
<text x="88" y="34" font-size="23" font-weight="700">beta time evolution at Re=78.0906</text>
<line class="axis" x1="88" y1="628" x2="1145" y2="628"/>
<line class="axis" x1="88" y1="58" x2="88" y2="628"/>
<line class="grid" x1="88" y1="628.0" x2="1145" y2="628.0"/>
<text x="18" y="632.0" font-size="12">-0.55</text>
<line class="grid" x1="88" y1="514.0" x2="1145" y2="514.0"/>
<text x="18" y="518.0" font-size="12">-0.33</text>
<line class="grid" x1="88" y1="400.0" x2="1145" y2="400.0"/>
<text x="18" y="404.0" font-size="12">-0.11</text>
<line class="grid" x1="88" y1="286.0" x2="1145" y2="286.0"/>
<text x="18" y="290.0" font-size="12">0.11</text>
<line class="grid" x1="88" y1="172.0" x2="1145" y2="172.0"/>
<text x="18" y="176.0" font-size="12">0.33</text>
<line class="grid" x1="88" y1="58.0" x2="1145" y2="58.0"/>
<text x="18" y="62.0" font-size="12">0.55</text>
<text x="66.0" y="656" font-size="12">368</text>
<text x="277.4" y="656" font-size="12">638</text>
<text x="488.8" y="656" font-size="12">908</text>
<text x="700.2" y="656" font-size="12">1178</text>
<text x="911.6" y="656" font-size="12">1449</text>
<text x="1123.0" y="656" font-size="12">1719</text>
<text x="578.5" y="692" font-size="14">time</text>
<text x="18" y="40" font-size="14">beta</text>
<polyline class="line" points="88.0,343.0 96.5,343.0 104.9,343.0 113.4,343.0 121.8,343.0 130.3,343.0 138.7,343.0 147.2,343.0 155.6,343.0 164.1,343.0 172.6,343.0 181.0,343.0 189.5,343.0 197.9,343.0 206.4,343.0 214.8,343.0 223.3,343.0 231.8,343.0 240.2,343.0 248.7,343.0 257.1,343.0 265.6,343.0 274.0,343.0 282.5,343.0 290.9,343.0 299.4,343.0 307.9,343.0 316.3,343.0 324.8,343.0 333.2,343.0 341.7,343.0 350.1,343.0 358.6,343.0 367.0,343.0 375.5,343.0 384.0,343.0 392.4,343.0 400.9,343.0 409.3,343.0 417.8,343.0 426.2,343.0 434.7,343.0 443.2,343.0 451.6,343.0 460.1,343.0 468.5,343.0 477.0,343.0 485.4,343.0 493.9,343.0 502.3,343.0 510.8,343.0 519.3,343.0 527.7,343.0 536.2,343.0 544.6,343.0 553.1,343.0 561.5,343.0 570.0,343.0 578.4,343.0 586.9,343.0 595.4,343.0 603.8,343.0 612.3,343.0 620.7,343.0 629.2,343.0 637.6,343.0 646.1,343.0 654.6,343.0 663.0,343.0 671.5,343.0 679.9,343.0 688.4,343.0 696.8,343.0 705.3,343.0 713.7,343.0 722.2,343.0 730.7,343.0 739.1,343.0 747.6,343.0 756.0,343.0 764.5,343.0 772.9,343.0 781.4,343.0 789.8,343.0 798.3,343.0 806.8,343.0 815.2,343.0 823.7,343.0 832.1,343.0 840.6,343.0 849.0,343.0 857.5,343.0 866.0,343.0 874.4,343.0 882.9,343.0 891.3,343.0 899.8,343.0 908.2,343.0 916.7,343.0 925.1,343.0 933.6,343.0 942.1,343.0 950.5,343.0 959.0,343.0 967.4,343.0 975.9,343.0 984.3,343.0 992.8,343.0 1001.2,343.0 1009.7,343.0 1018.2,343.0 1026.6,343.0 1035.1,343.0 1043.5,343.0 1052.0,343.0 1060.4,343.0 1068.9,343.0 1077.4,343.0 1085.8,343.0 1094.3,343.0 1102.7,343.0 1111.2,343.0 1119.6,343.0 1128.1,343.0 1136.5,343.0 1145.0,343.0" stroke="#2ca02c"/>
<circle class="dot" cx="88.0" cy="343.0" r="4.2" fill="#2ca02c"/>
<circle class="dot" cx="96.5" cy="343.0" r="4.2" fill="#2ca02c"/>
<circle class="dot" cx="104.9" cy="343.0" r="4.2" fill="#2ca02c"/>
<circle class="dot" cx="113.4" cy="343.0" r="4.2" fill="#2ca02c"/>
<circle class="dot" cx="121.8" cy="343.0" r="4.2" fill="#2ca02c"/>
<circle class="dot" cx="130.3" cy="343.0" r="4.2" fill="#2ca02c"/>
<circle class="dot" cx="138.7" cy="343.0" r="4.2" fill="#2ca02c"/>
<circle class="dot" cx="147.2" cy="343.0" r="4.2" fill="#2ca02c"/>
<circle class="dot" cx="155.6" cy="343.0" r="4.2" fill="#2ca02c"/>
<circle class="dot" cx="164.1" cy="343.0" r="4.2" fill="#2ca02c"/>
<circle class="dot" cx="172.6" cy="343.0" r="4.2" fill="#2ca02c"/>
<circle class="dot" cx="181.0" cy="343.0" r="4.2" fill="#2ca02c"/>
<circle class="dot" cx="189.5" cy="343.0" r="4.2" fill="#2ca02c"/>
<circle class="dot" cx="197.9" cy="343.0" r="4.2" fill="#2ca02c"/>
<circle class="dot" cx="206.4" cy="343.0" r="4.2" fill="#2ca02c"/>
<circle class="dot" cx="214.8" cy="343.0" r="4.2" fill="#2ca02c"/>
<circle class="dot" cx="223.3" cy="343.0" r="4.2" fill="#2ca02c"/>
<circle class="dot" cx="231.8" cy="343.0" r="4.2" fill="#2ca02c"/>
<circle class="dot" cx="240.2" cy="343.0" r="4.2" fill="#2ca02c"/>
<circle class="dot" cx="248.7" cy="343.0" r="4.2" fill="#2ca02c"/>
<circle class="dot" cx="257.1" cy="343.0" r="4.2" fill="#2ca02c"/>
<circle class="dot" cx="265.6" cy="343.0" r="4.2" fill="#2ca02c"/>
<circle class="dot" cx="274.0" cy="343.0" r="4.2" fill="#2ca02c"/>
<circle class="dot" cx="282.5" cy="343.0" r="4.2" fill="#2ca02c"/>
<circle class="dot" cx="290.9" cy="343.0" r="4.2" fill="#2ca02c"/>
<circle class="dot" cx="299.4" cy="343.0" r="4.2" fill="#2ca02c"/>
<circle class="dot" cx="307.9" cy="343.0" r="4.2" fill="#2ca02c"/>
<circle class="dot" cx="316.3" cy="343.0" r="4.2" fill="#2ca02c"/>
<circle class="dot" cx="324.8" cy="343.0" r="4.2" fill="#2ca02c"/>
<circle class="dot" cx="333.2" cy="343.0" r="4.2" fill="#2ca02c"/>
<circle class="dot" cx="341.7" cy="343.0" r="4.2" fill="#2ca02c"/>
<circle class="dot" cx="350.1" cy="343.0" r="4.2" fill="#2ca02c"/>
<circle class="dot" cx="358.6" cy="343.0" r="4.2" fill="#2ca02c"/>
<circle class="dot" cx="367.0" cy="343.0" r="4.2" fill="#2ca02c"/>
<circle class="dot" cx="375.5" cy="343.0" r="4.2" fill="#2ca02c"/>
<circle class="dot" cx="384.0" cy="343.0" r="4.2" fill="#2ca02c"/>
<circle class="dot" cx="392.4" cy="343.0" r="4.2" fill="#2ca02c"/>
<circle class="dot" cx="400.9" cy="343.0" r="4.2" fill="#2ca02c"/>
<circle class="dot" cx="409.3" cy="343.0" r="4.2" fill="#2ca02c"/>
<circle class="dot" cx="417.8" cy="343.0" r="4.2" fill="#2ca02c"/>
<circle class="dot" cx="426.2" cy="343.0" r="4.2" fill="#2ca02c"/>
<circle class="dot" cx="434.7" cy="343.0" r="4.2" fill="#2ca02c"/>
<circle class="dot" cx="443.2" cy="343.0" r="4.2" fill="#2ca02c"/>
<circle class="dot" cx="451.6" cy="343.0" r="4.2" fill="#2ca02c"/>
<circle class="dot" cx="460.1" cy="343.0" r="4.2" fill="#2ca02c"/>
<circle class="dot" cx="468.5" cy="343.0" r="4.2" fill="#2ca02c"/>
<circle class="dot" cx="477.0" cy="343.0" r="4.2" fill="#2ca02c"/>
<circle class="dot" cx="485.4" cy="343.0" r="4.2" fill="#2ca02c"/>
<circle class="dot" cx="493.9" cy="343.0" r="4.2" fill="#2ca02c"/>
<circle class="dot" cx="502.3" cy="343.0" r="4.2" fill="#2ca02c"/>
<circle class="dot" cx="510.8" cy="343.0" r="4.2" fill="#2ca02c"/>
<circle class="dot" cx="519.3" cy="343.0" r="4.2" fill="#2ca02c"/>
<circle class="dot" cx="527.7" cy="343.0" r="4.2" fill="#2ca02c"/>
<circle class="dot" cx="536.2" cy="343.0" r="4.2" fill="#2ca02c"/>
<circle class="dot" cx="544.6" cy="343.0" r="4.2" fill="#2ca02c"/>
<circle class="dot" cx="553.1" cy="343.0" r="4.2" fill="#2ca02c"/>
<circle class="dot" cx="561.5" cy="343.0" r="4.2" fill="#2ca02c"/>
<circle class="dot" cx="570.0" cy="343.0" r="4.2" fill="#2ca02c"/>
<circle class="dot" cx="578.4" cy="343.0" r="4.2" fill="#2ca02c"/>
<circle class="dot" cx="586.9" cy="343.0" r="4.2" fill="#2ca02c"/>
<circle class="dot" cx="595.4" cy="343.0" r="4.2" fill="#2ca02c"/>
<circle class="dot" cx="603.8" cy="343.0" r="4.2" fill="#2ca02c"/>
<circle class="dot" cx="612.3" cy="343.0" r="4.2" fill="#2ca02c"/>
<circle class="dot" cx="620.7" cy="343.0" r="4.2" fill="#2ca02c"/>
<circle class="dot" cx="629.2" cy="343.0" r="4.2" fill="#2ca02c"/>
<circle class="dot" cx="637.6" cy="343.0" r="4.2" fill="#2ca02c"/>
<circle class="dot" cx="646.1" cy="343.0" r="4.2" fill="#2ca02c"/>
<circle class="dot" cx="654.6" cy="343.0" r="4.2" fill="#2ca02c"/>
<circle class="dot" cx="663.0" cy="343.0" r="4.2" fill="#2ca02c"/>
<circle class="dot" cx="671.5" cy="343.0" r="4.2" fill="#2ca02c"/>
<circle class="dot" cx="679.9" cy="343.0" r="4.2" fill="#2ca02c"/>
<circle class="dot" cx="688.4" cy="343.0" r="4.2" fill="#2ca02c"/>
<circle class="dot" cx="696.8" cy="343.0" r="4.2" fill="#2ca02c"/>
<circle class="dot" cx="705.3" cy="343.0" r="4.2" fill="#2ca02c"/>
<circle class="dot" cx="713.7" cy="343.0" r="4.2" fill="#2ca02c"/>
<circle class="dot" cx="722.2" cy="343.0" r="4.2" fill="#2ca02c"/>
<circle class="dot" cx="730.7" cy="343.0" r="4.2" fill="#2ca02c"/>
<circle class="dot" cx="739.1" cy="343.0" r="4.2" fill="#2ca02c"/>
<circle class="dot" cx="747.6" cy="343.0" r="4.2" fill="#2ca02c"/>
<circle class="dot" cx="756.0" cy="343.0" r="4.2" fill="#2ca02c"/>
<circle class="dot" cx="764.5" cy="343.0" r="4.2" fill="#2ca02c"/>
<circle class="dot" cx="772.9" cy="343.0" r="4.2" fill="#2ca02c"/>
<circle class="dot" cx="781.4" cy="343.0" r="4.2" fill="#2ca02c"/>
<circle class="dot" cx="789.8" cy="343.0" r="4.2" fill="#2ca02c"/>
<circle class="dot" cx="798.3" cy="343.0" r="4.2" fill="#2ca02c"/>
<circle class="dot" cx="806.8" cy="343.0" r="4.2" fill="#2ca02c"/>
<circle class="dot" cx="815.2" cy="343.0" r="4.2" fill="#2ca02c"/>
<circle class="dot" cx="823.7" cy="343.0" r="4.2" fill="#2ca02c"/>
<circle class="dot" cx="832.1" cy="343.0" r="4.2" fill="#2ca02c"/>
<circle class="dot" cx="840.6" cy="343.0" r="4.2" fill="#2ca02c"/>
<circle class="dot" cx="849.0" cy="343.0" r="4.2" fill="#2ca02c"/>
<circle class="dot" cx="857.5" cy="343.0" r="4.2" fill="#2ca02c"/>
<circle class="dot" cx="866.0" cy="343.0" r="4.2" fill="#2ca02c"/>
<circle class="dot" cx="874.4" cy="343.0" r="4.2" fill="#2ca02c"/>
<circle class="dot" cx="882.9" cy="343.0" r="4.2" fill="#2ca02c"/>
<circle class="dot" cx="891.3" cy="343.0" r="4.2" fill="#2ca02c"/>
<circle class="dot" cx="899.8" cy="343.0" r="4.2" fill="#2ca02c"/>
<circle class="dot" cx="908.2" cy="343.0" r="4.2" fill="#2ca02c"/>
<circle class="dot" cx="916.7" cy="343.0" r="4.2" fill="#2ca02c"/>
<circle class="dot" cx="925.1" cy="343.0" r="4.2" fill="#2ca02c"/>
<circle class="dot" cx="933.6" cy="343.0" r="4.2" fill="#2ca02c"/>
<circle class="dot" cx="942.1" cy="343.0" r="4.2" fill="#2ca02c"/>
<circle class="dot" cx="950.5" cy="343.0" r="4.2" fill="#2ca02c"/>
<circle class="dot" cx="959.0" cy="343.0" r="4.2" fill="#2ca02c"/>
<circle class="dot" cx="967.4" cy="343.0" r="4.2" fill="#2ca02c"/>
<circle class="dot" cx="975.9" cy="343.0" r="4.2" fill="#2ca02c"/>
<circle class="dot" cx="984.3" cy="343.0" r="4.2" fill="#2ca02c"/>
<circle class="dot" cx="992.8" cy="343.0" r="4.2" fill="#2ca02c"/>
<circle class="dot" cx="1001.2" cy="343.0" r="4.2" fill="#2ca02c"/>
<circle class="dot" cx="1009.7" cy="343.0" r="4.2" fill="#2ca02c"/>
<circle class="dot" cx="1018.2" cy="343.0" r="4.2" fill="#2ca02c"/>
<circle class="dot" cx="1026.6" cy="343.0" r="4.2" fill="#2ca02c"/>
<circle class="dot" cx="1035.1" cy="343.0" r="4.2" fill="#2ca02c"/>
<circle class="dot" cx="1043.5" cy="343.0" r="4.2" fill="#2ca02c"/>
<circle class="dot" cx="1052.0" cy="343.0" r="4.2" fill="#2ca02c"/>
<circle class="dot" cx="1060.4" cy="343.0" r="4.2" fill="#2ca02c"/>
<circle class="dot" cx="1068.9" cy="343.0" r="4.2" fill="#2ca02c"/>
<circle class="dot" cx="1077.4" cy="343.0" r="4.2" fill="#2ca02c"/>
<circle class="dot" cx="1085.8" cy="343.0" r="4.2" fill="#2ca02c"/>
<circle class="dot" cx="1094.3" cy="343.0" r="4.2" fill="#2ca02c"/>
<circle class="dot" cx="1102.7" cy="343.0" r="4.2" fill="#2ca02c"/>
<circle class="dot" cx="1111.2" cy="343.0" r="4.2" fill="#2ca02c"/>
<circle class="dot" cx="1119.6" cy="343.0" r="4.2" fill="#2ca02c"/>
<circle class="dot" cx="1128.1" cy="343.0" r="4.2" fill="#2ca02c"/>
<circle class="dot" cx="1136.5" cy="343.0" r="4.2" fill="#2ca02c"/>
<circle class="dot" cx="1145.0" cy="343.0" r="4.2" fill="#2ca02c"/>
<line x1="100" y1="78" x2="124" y2="78" stroke="#2ca02c" stroke-width="3"/>
<text x="132" y="82" font-size="13">AdaptiveBaseScaling</text>
<polyline class="line" points="88.0,343.0 96.5,343.0 104.9,343.0 113.4,343.0 121.8,343.0 130.3,343.0 138.7,343.0 147.2,343.0 155.6,343.0 164.1,343.0 172.6,343.0 181.0,343.0 189.5,343.0 197.9,343.0 206.4,343.0 214.8,343.0 223.3,343.0 231.8,343.0 240.2,343.0 248.7,343.0 257.1,343.0 265.6,343.0 274.0,343.0 282.5,343.0 290.9,343.0 299.4,343.0 307.9,343.0 316.3,343.0 324.8,343.0 333.2,343.0 341.7,343.0 350.1,343.0 358.6,343.0 367.0,343.0 375.5,343.0 384.0,343.0 392.4,343.0 400.9,343.0 409.3,343.0 417.8,343.0 426.2,343.0 434.7,343.0 443.2,343.0 451.6,343.0 460.1,343.0 468.5,343.0 477.0,343.0 485.4,343.0 493.9,343.0 502.3,343.0 510.8,343.0 519.3,343.0 527.7,343.0 536.2,343.0 544.6,343.0 553.1,343.0 561.5,343.0 570.0,343.0 578.4,343.0 586.9,343.0 595.4,343.0 603.8,343.0 612.3,343.0 620.7,343.0 629.2,343.0 637.6,343.0 646.1,343.0 654.6,343.0 663.0,343.0 671.5,343.0 679.9,343.0 688.4,343.0 696.8,343.0 705.3,343.0 713.7,343.0 722.2,343.0 730.7,343.0 739.1,343.0 747.6,343.0 756.0,343.0 764.5,343.0 772.9,343.0 781.4,343.0 789.8,343.0 798.3,343.0 806.8,343.0 815.2,343.0 823.7,343.0 832.1,343.0 840.6,343.0 849.0,343.0 857.5,343.0 866.0,343.0 874.4,343.0 882.9,343.0 891.3,343.0 899.8,343.0 908.2,343.0 916.7,343.0 925.1,343.0 933.6,343.0 942.1,343.0 950.5,343.0 959.0,343.0 967.4,343.0 975.9,343.0 984.3,343.0 992.8,343.0 1001.2,343.0 1009.7,343.0 1018.2,343.0 1026.6,343.0 1035.1,343.0 1043.5,343.0 1052.0,343.0 1060.4,343.0 1068.9,343.0 1077.4,343.0 1085.8,343.0 1094.3,343.0 1102.7,343.0 1111.2,343.0 1119.6,343.0 1128.1,343.0 1136.5,343.0 1145.0,343.0" stroke="#ff7f0e"/>
<circle class="dot" cx="88.0" cy="343.0" r="4.2" fill="#ff7f0e"/>
<circle class="dot" cx="96.5" cy="343.0" r="4.2" fill="#ff7f0e"/>
<circle class="dot" cx="104.9" cy="343.0" r="4.2" fill="#ff7f0e"/>
<circle class="dot" cx="113.4" cy="343.0" r="4.2" fill="#ff7f0e"/>
<circle class="dot" cx="121.8" cy="343.0" r="4.2" fill="#ff7f0e"/>
<circle class="dot" cx="130.3" cy="343.0" r="4.2" fill="#ff7f0e"/>
<circle class="dot" cx="138.7" cy="343.0" r="4.2" fill="#ff7f0e"/>
<circle class="dot" cx="147.2" cy="343.0" r="4.2" fill="#ff7f0e"/>
<circle class="dot" cx="155.6" cy="343.0" r="4.2" fill="#ff7f0e"/>
<circle class="dot" cx="164.1" cy="343.0" r="4.2" fill="#ff7f0e"/>
<circle class="dot" cx="172.6" cy="343.0" r="4.2" fill="#ff7f0e"/>
<circle class="dot" cx="181.0" cy="343.0" r="4.2" fill="#ff7f0e"/>
<circle class="dot" cx="189.5" cy="343.0" r="4.2" fill="#ff7f0e"/>
<circle class="dot" cx="197.9" cy="343.0" r="4.2" fill="#ff7f0e"/>
<circle class="dot" cx="206.4" cy="343.0" r="4.2" fill="#ff7f0e"/>
<circle class="dot" cx="214.8" cy="343.0" r="4.2" fill="#ff7f0e"/>
<circle class="dot" cx="223.3" cy="343.0" r="4.2" fill="#ff7f0e"/>
<circle class="dot" cx="231.8" cy="343.0" r="4.2" fill="#ff7f0e"/>
<circle class="dot" cx="240.2" cy="343.0" r="4.2" fill="#ff7f0e"/>
<circle class="dot" cx="248.7" cy="343.0" r="4.2" fill="#ff7f0e"/>
<circle class="dot" cx="257.1" cy="343.0" r="4.2" fill="#ff7f0e"/>
<circle class="dot" cx="265.6" cy="343.0" r="4.2" fill="#ff7f0e"/>
<circle class="dot" cx="274.0" cy="343.0" r="4.2" fill="#ff7f0e"/>
<circle class="dot" cx="282.5" cy="343.0" r="4.2" fill="#ff7f0e"/>
<circle class="dot" cx="290.9" cy="343.0" r="4.2" fill="#ff7f0e"/>
<circle class="dot" cx="299.4" cy="343.0" r="4.2" fill="#ff7f0e"/>
<circle class="dot" cx="307.9" cy="343.0" r="4.2" fill="#ff7f0e"/>
<circle class="dot" cx="316.3" cy="343.0" r="4.2" fill="#ff7f0e"/>
<circle class="dot" cx="324.8" cy="343.0" r="4.2" fill="#ff7f0e"/>
<circle class="dot" cx="333.2" cy="343.0" r="4.2" fill="#ff7f0e"/>
<circle class="dot" cx="341.7" cy="343.0" r="4.2" fill="#ff7f0e"/>
<circle class="dot" cx="350.1" cy="343.0" r="4.2" fill="#ff7f0e"/>
<circle class="dot" cx="358.6" cy="343.0" r="4.2" fill="#ff7f0e"/>
<circle class="dot" cx="367.0" cy="343.0" r="4.2" fill="#ff7f0e"/>
<circle class="dot" cx="375.5" cy="343.0" r="4.2" fill="#ff7f0e"/>
<circle class="dot" cx="384.0" cy="343.0" r="4.2" fill="#ff7f0e"/>
<circle class="dot" cx="392.4" cy="343.0" r="4.2" fill="#ff7f0e"/>
<circle class="dot" cx="400.9" cy="343.0" r="4.2" fill="#ff7f0e"/>
<circle class="dot" cx="409.3" cy="343.0" r="4.2" fill="#ff7f0e"/>
<circle class="dot" cx="417.8" cy="343.0" r="4.2" fill="#ff7f0e"/>
<circle class="dot" cx="426.2" cy="343.0" r="4.2" fill="#ff7f0e"/>
<circle class="dot" cx="434.7" cy="343.0" r="4.2" fill="#ff7f0e"/>
<circle class="dot" cx="443.2" cy="343.0" r="4.2" fill="#ff7f0e"/>
<circle class="dot" cx="451.6" cy="343.0" r="4.2" fill="#ff7f0e"/>
<circle class="dot" cx="460.1" cy="343.0" r="4.2" fill="#ff7f0e"/>
<circle class="dot" cx="468.5" cy="343.0" r="4.2" fill="#ff7f0e"/>
<circle class="dot" cx="477.0" cy="343.0" r="4.2" fill="#ff7f0e"/>
<circle class="dot" cx="485.4" cy="343.0" r="4.2" fill="#ff7f0e"/>
<circle class="dot" cx="493.9" cy="343.0" r="4.2" fill="#ff7f0e"/>
<circle class="dot" cx="502.3" cy="343.0" r="4.2" fill="#ff7f0e"/>
<circle class="dot" cx="510.8" cy="343.0" r="4.2" fill="#ff7f0e"/>
<circle class="dot" cx="519.3" cy="343.0" r="4.2" fill="#ff7f0e"/>
<circle class="dot" cx="527.7" cy="343.0" r="4.2" fill="#ff7f0e"/>
<circle class="dot" cx="536.2" cy="343.0" r="4.2" fill="#ff7f0e"/>
<circle class="dot" cx="544.6" cy="343.0" r="4.2" fill="#ff7f0e"/>
<circle class="dot" cx="553.1" cy="343.0" r="4.2" fill="#ff7f0e"/>
<circle class="dot" cx="561.5" cy="343.0" r="4.2" fill="#ff7f0e"/>
<circle class="dot" cx="570.0" cy="343.0" r="4.2" fill="#ff7f0e"/>
<circle class="dot" cx="578.4" cy="343.0" r="4.2" fill="#ff7f0e"/>
<circle class="dot" cx="586.9" cy="343.0" r="4.2" fill="#ff7f0e"/>
<circle class="dot" cx="595.4" cy="343.0" r="4.2" fill="#ff7f0e"/>
<circle class="dot" cx="603.8" cy="343.0" r="4.2" fill="#ff7f0e"/>
<circle class="dot" cx="612.3" cy="343.0" r="4.2" fill="#ff7f0e"/>
<circle class="dot" cx="620.7" cy="343.0" r="4.2" fill="#ff7f0e"/>
<circle class="dot" cx="629.2" cy="343.0" r="4.2" fill="#ff7f0e"/>
<circle class="dot" cx="637.6" cy="343.0" r="4.2" fill="#ff7f0e"/>
<circle class="dot" cx="646.1" cy="343.0" r="4.2" fill="#ff7f0e"/>
<circle class="dot" cx="654.6" cy="343.0" r="4.2" fill="#ff7f0e"/>
<circle class="dot" cx="663.0" cy="343.0" r="4.2" fill="#ff7f0e"/>
<circle class="dot" cx="671.5" cy="343.0" r="4.2" fill="#ff7f0e"/>
<circle class="dot" cx="679.9" cy="343.0" r="4.2" fill="#ff7f0e"/>
<circle class="dot" cx="688.4" cy="343.0" r="4.2" fill="#ff7f0e"/>
<circle class="dot" cx="696.8" cy="343.0" r="4.2" fill="#ff7f0e"/>
<circle class="dot" cx="705.3" cy="343.0" r="4.2" fill="#ff7f0e"/>
<circle class="dot" cx="713.7" cy="343.0" r="4.2" fill="#ff7f0e"/>
<circle class="dot" cx="722.2" cy="343.0" r="4.2" fill="#ff7f0e"/>
<circle class="dot" cx="730.7" cy="343.0" r="4.2" fill="#ff7f0e"/>
<circle class="dot" cx="739.1" cy="343.0" r="4.2" fill="#ff7f0e"/>
<circle class="dot" cx="747.6" cy="343.0" r="4.2" fill="#ff7f0e"/>
<circle class="dot" cx="756.0" cy="343.0" r="4.2" fill="#ff7f0e"/>
<circle class="dot" cx="764.5" cy="343.0" r="4.2" fill="#ff7f0e"/>
<circle class="dot" cx="772.9" cy="343.0" r="4.2" fill="#ff7f0e"/>
<circle class="dot" cx="781.4" cy="343.0" r="4.2" fill="#ff7f0e"/>
<circle class="dot" cx="789.8" cy="343.0" r="4.2" fill="#ff7f0e"/>
<circle class="dot" cx="798.3" cy="343.0" r="4.2" fill="#ff7f0e"/>
<circle class="dot" cx="806.8" cy="343.0" r="4.2" fill="#ff7f0e"/>
<circle class="dot" cx="815.2" cy="343.0" r="4.2" fill="#ff7f0e"/>
<circle class="dot" cx="823.7" cy="343.0" r="4.2" fill="#ff7f0e"/>
<circle class="dot" cx="832.1" cy="343.0" r="4.2" fill="#ff7f0e"/>
<circle class="dot" cx="840.6" cy="343.0" r="4.2" fill="#ff7f0e"/>
<circle class="dot" cx="849.0" cy="343.0" r="4.2" fill="#ff7f0e"/>
<circle class="dot" cx="857.5" cy="343.0" r="4.2" fill="#ff7f0e"/>
<circle class="dot" cx="866.0" cy="343.0" r="4.2" fill="#ff7f0e"/>
<circle class="dot" cx="874.4" cy="343.0" r="4.2" fill="#ff7f0e"/>
<circle class="dot" cx="882.9" cy="343.0" r="4.2" fill="#ff7f0e"/>
<circle class="dot" cx="891.3" cy="343.0" r="4.2" fill="#ff7f0e"/>
<circle class="dot" cx="899.8" cy="343.0" r="4.2" fill="#ff7f0e"/>
<circle class="dot" cx="908.2" cy="343.0" r="4.2" fill="#ff7f0e"/>
<circle class="dot" cx="916.7" cy="343.0" r="4.2" fill="#ff7f0e"/>
<circle class="dot" cx="925.1" cy="343.0" r="4.2" fill="#ff7f0e"/>
<circle class="dot" cx="933.6" cy="343.0" r="4.2" fill="#ff7f0e"/>
<circle class="dot" cx="942.1" cy="343.0" r="4.2" fill="#ff7f0e"/>
<circle class="dot" cx="950.5" cy="343.0" r="4.2" fill="#ff7f0e"/>
<circle class="dot" cx="959.0" cy="343.0" r="4.2" fill="#ff7f0e"/>
<circle class="dot" cx="967.4" cy="343.0" r="4.2" fill="#ff7f0e"/>
<circle class="dot" cx="975.9" cy="343.0" r="4.2" fill="#ff7f0e"/>
<circle class="dot" cx="984.3" cy="343.0" r="4.2" fill="#ff7f0e"/>
<circle class="dot" cx="992.8" cy="343.0" r="4.2" fill="#ff7f0e"/>
<circle class="dot" cx="1001.2" cy="343.0" r="4.2" fill="#ff7f0e"/>
<circle class="dot" cx="1009.7" cy="343.0" r="4.2" fill="#ff7f0e"/>
<circle class="dot" cx="1018.2" cy="343.0" r="4.2" fill="#ff7f0e"/>
<circle class="dot" cx="1026.6" cy="343.0" r="4.2" fill="#ff7f0e"/>
<circle class="dot" cx="1035.1" cy="343.0" r="4.2" fill="#ff7f0e"/>
<circle class="dot" cx="1043.5" cy="343.0" r="4.2" fill="#ff7f0e"/>
<circle class="dot" cx="1052.0" cy="343.0" r="4.2" fill="#ff7f0e"/>
<circle class="dot" cx="1060.4" cy="343.0" r="4.2" fill="#ff7f0e"/>
<circle class="dot" cx="1068.9" cy="343.0" r="4.2" fill="#ff7f0e"/>
<circle class="dot" cx="1077.4" cy="343.0" r="4.2" fill="#ff7f0e"/>
<circle class="dot" cx="1085.8" cy="343.0" r="4.2" fill="#ff7f0e"/>
<circle class="dot" cx="1094.3" cy="343.0" r="4.2" fill="#ff7f0e"/>
<circle class="dot" cx="1102.7" cy="343.0" r="4.2" fill="#ff7f0e"/>
<circle class="dot" cx="1111.2" cy="343.0" r="4.2" fill="#ff7f0e"/>
<circle class="dot" cx="1119.6" cy="343.0" r="4.2" fill="#ff7f0e"/>
<circle class="dot" cx="1128.1" cy="343.0" r="4.2" fill="#ff7f0e"/>
<circle class="dot" cx="1136.5" cy="343.0" r="4.2" fill="#ff7f0e"/>
<circle class="dot" cx="1145.0" cy="343.0" r="4.2" fill="#ff7f0e"/>
<line x1="100" y1="100" x2="124" y2="100" stroke="#ff7f0e" stroke-width="3"/>
<text x="132" y="104" font-size="13">AdaptiveResidualScaling</text>
<polyline class="line" points="88.0,432.7 96.5,425.3 104.9,421.2 113.4,425.0 121.8,424.7 130.3,432.3 138.7,429.3 147.2,434.0 155.6,445.8 164.1,434.9 172.6,433.0 181.0,434.8 189.5,436.8 197.9,443.5 206.4,434.0 214.8,441.1 223.3,450.3 231.8,434.3 240.2,434.4 248.7,434.3 257.1,432.0 265.6,438.6 274.0,426.2 282.5,427.5 290.9,435.8 299.4,421.7 307.9,423.0 316.3,422.4 324.8,419.8 333.2,426.3 341.7,417.8 350.1,416.1 358.6,423.1 367.0,414.4 375.5,413.6 384.0,411.0 392.4,409.8 400.9,415.3 409.3,409.1 417.8,411.6 426.2,417.7 434.7,411.2 443.2,406.8 451.6,403.1 460.1,403.2 468.5,407.1 477.0,395.9 485.4,402.5 493.9,408.7 502.3,403.4 510.8,400.8 519.3,397.2 527.7,393.3 536.2,398.7 544.6,391.5 553.1,387.2 561.5,386.4 570.0,380.3 578.4,381.7 586.9,391.2 595.4,381.3 603.8,379.7 612.3,374.3 620.7,373.9 629.2,373.9 637.6,366.2 646.1,366.7 654.6,373.8 663.0,366.3 671.5,367.9 679.9,365.0 688.4,359.4 696.8,358.1 705.3,353.8 713.7,357.0 722.2,355.8 730.7,358.0 739.1,357.2 747.6,360.0 756.0,354.0 764.5,353.4 772.9,348.8 781.4,346.4 789.8,350.1 798.3,348.7 806.8,347.5 815.2,349.4 823.7,349.4 832.1,351.4 840.6,349.0 849.0,346.8 857.5,343.9 866.0,347.2 874.4,345.9 882.9,345.8 891.3,347.2 899.8,348.9 908.2,350.4 916.7,347.1 925.1,345.2 933.6,343.6 942.1,347.2 950.5,344.5 959.0,348.6 967.4,349.0 975.9,350.5 984.3,347.8 992.8,346.5 1001.2,343.3 1009.7,345.5 1018.2,345.1 1026.6,348.0 1035.1,352.5 1043.5,350.0 1052.0,349.7 1060.4,347.7 1068.9,344.1 1077.4,343.7 1085.8,346.3 1094.3,347.6 1102.7,354.2 1111.2,350.3 1119.6,351.1 1128.1,349.2 1136.5,345.1 1145.0,342.5" stroke="#d62728"/>
<circle class="dot" cx="88.0" cy="432.7" r="4.2" fill="#d62728"/>
<circle class="dot" cx="96.5" cy="425.3" r="4.2" fill="#d62728"/>
<circle class="dot" cx="104.9" cy="421.2" r="4.2" fill="#d62728"/>
<circle class="dot" cx="113.4" cy="425.0" r="4.2" fill="#d62728"/>
<circle class="dot" cx="121.8" cy="424.7" r="4.2" fill="#d62728"/>
<circle class="dot" cx="130.3" cy="432.3" r="4.2" fill="#d62728"/>
<circle class="dot" cx="138.7" cy="429.3" r="4.2" fill="#d62728"/>
<circle class="dot" cx="147.2" cy="434.0" r="4.2" fill="#d62728"/>
<circle class="dot" cx="155.6" cy="445.8" r="4.2" fill="#d62728"/>
<circle class="dot" cx="164.1" cy="434.9" r="4.2" fill="#d62728"/>
<circle class="dot" cx="172.6" cy="433.0" r="4.2" fill="#d62728"/>
<circle class="dot" cx="181.0" cy="434.8" r="4.2" fill="#d62728"/>
<circle class="dot" cx="189.5" cy="436.8" r="4.2" fill="#d62728"/>
<circle class="dot" cx="197.9" cy="443.5" r="4.2" fill="#d62728"/>
<circle class="dot" cx="206.4" cy="434.0" r="4.2" fill="#d62728"/>
<circle class="dot" cx="214.8" cy="441.1" r="4.2" fill="#d62728"/>
<circle class="dot" cx="223.3" cy="450.3" r="4.2" fill="#d62728"/>
<circle class="dot" cx="231.8" cy="434.3" r="4.2" fill="#d62728"/>
<circle class="dot" cx="240.2" cy="434.4" r="4.2" fill="#d62728"/>
<circle class="dot" cx="248.7" cy="434.3" r="4.2" fill="#d62728"/>
<circle class="dot" cx="257.1" cy="432.0" r="4.2" fill="#d62728"/>
<circle class="dot" cx="265.6" cy="438.6" r="4.2" fill="#d62728"/>
<circle class="dot" cx="274.0" cy="426.2" r="4.2" fill="#d62728"/>
<circle class="dot" cx="282.5" cy="427.5" r="4.2" fill="#d62728"/>
<circle class="dot" cx="290.9" cy="435.8" r="4.2" fill="#d62728"/>
<circle class="dot" cx="299.4" cy="421.7" r="4.2" fill="#d62728"/>
<circle class="dot" cx="307.9" cy="423.0" r="4.2" fill="#d62728"/>
<circle class="dot" cx="316.3" cy="422.4" r="4.2" fill="#d62728"/>
<circle class="dot" cx="324.8" cy="419.8" r="4.2" fill="#d62728"/>
<circle class="dot" cx="333.2" cy="426.3" r="4.2" fill="#d62728"/>
<circle class="dot" cx="341.7" cy="417.8" r="4.2" fill="#d62728"/>
<circle class="dot" cx="350.1" cy="416.1" r="4.2" fill="#d62728"/>
<circle class="dot" cx="358.6" cy="423.1" r="4.2" fill="#d62728"/>
<circle class="dot" cx="367.0" cy="414.4" r="4.2" fill="#d62728"/>
<circle class="dot" cx="375.5" cy="413.6" r="4.2" fill="#d62728"/>
<circle class="dot" cx="384.0" cy="411.0" r="4.2" fill="#d62728"/>
<circle class="dot" cx="392.4" cy="409.8" r="4.2" fill="#d62728"/>
<circle class="dot" cx="400.9" cy="415.3" r="4.2" fill="#d62728"/>
<circle class="dot" cx="409.3" cy="409.1" r="4.2" fill="#d62728"/>
<circle class="dot" cx="417.8" cy="411.6" r="4.2" fill="#d62728"/>
<circle class="dot" cx="426.2" cy="417.7" r="4.2" fill="#d62728"/>
<circle class="dot" cx="434.7" cy="411.2" r="4.2" fill="#d62728"/>
<circle class="dot" cx="443.2" cy="406.8" r="4.2" fill="#d62728"/>
<circle class="dot" cx="451.6" cy="403.1" r="4.2" fill="#d62728"/>
<circle class="dot" cx="460.1" cy="403.2" r="4.2" fill="#d62728"/>
<circle class="dot" cx="468.5" cy="407.1" r="4.2" fill="#d62728"/>
<circle class="dot" cx="477.0" cy="395.9" r="4.2" fill="#d62728"/>
<circle class="dot" cx="485.4" cy="402.5" r="4.2" fill="#d62728"/>
<circle class="dot" cx="493.9" cy="408.7" r="4.2" fill="#d62728"/>
<circle class="dot" cx="502.3" cy="403.4" r="4.2" fill="#d62728"/>
<circle class="dot" cx="510.8" cy="400.8" r="4.2" fill="#d62728"/>
<circle class="dot" cx="519.3" cy="397.2" r="4.2" fill="#d62728"/>
<circle class="dot" cx="527.7" cy="393.3" r="4.2" fill="#d62728"/>
<circle class="dot" cx="536.2" cy="398.7" r="4.2" fill="#d62728"/>
<circle class="dot" cx="544.6" cy="391.5" r="4.2" fill="#d62728"/>
<circle class="dot" cx="553.1" cy="387.2" r="4.2" fill="#d62728"/>
<circle class="dot" cx="561.5" cy="386.4" r="4.2" fill="#d62728"/>
<circle class="dot" cx="570.0" cy="380.3" r="4.2" fill="#d62728"/>
<circle class="dot" cx="578.4" cy="381.7" r="4.2" fill="#d62728"/>
<circle class="dot" cx="586.9" cy="391.2" r="4.2" fill="#d62728"/>
<circle class="dot" cx="595.4" cy="381.3" r="4.2" fill="#d62728"/>
<circle class="dot" cx="603.8" cy="379.7" r="4.2" fill="#d62728"/>
<circle class="dot" cx="612.3" cy="374.3" r="4.2" fill="#d62728"/>
<circle class="dot" cx="620.7" cy="373.9" r="4.2" fill="#d62728"/>
<circle class="dot" cx="629.2" cy="373.9" r="4.2" fill="#d62728"/>
<circle class="dot" cx="637.6" cy="366.2" r="4.2" fill="#d62728"/>
<circle class="dot" cx="646.1" cy="366.7" r="4.2" fill="#d62728"/>
<circle class="dot" cx="654.6" cy="373.8" r="4.2" fill="#d62728"/>
<circle class="dot" cx="663.0" cy="366.3" r="4.2" fill="#d62728"/>
<circle class="dot" cx="671.5" cy="367.9" r="4.2" fill="#d62728"/>
<circle class="dot" cx="679.9" cy="365.0" r="4.2" fill="#d62728"/>
<circle class="dot" cx="688.4" cy="359.4" r="4.2" fill="#d62728"/>
<circle class="dot" cx="696.8" cy="358.1" r="4.2" fill="#d62728"/>
<circle class="dot" cx="705.3" cy="353.8" r="4.2" fill="#d62728"/>
<circle class="dot" cx="713.7" cy="357.0" r="4.2" fill="#d62728"/>
<circle class="dot" cx="722.2" cy="355.8" r="4.2" fill="#d62728"/>
<circle class="dot" cx="730.7" cy="358.0" r="4.2" fill="#d62728"/>
<circle class="dot" cx="739.1" cy="357.2" r="4.2" fill="#d62728"/>
<circle class="dot" cx="747.6" cy="360.0" r="4.2" fill="#d62728"/>
<circle class="dot" cx="756.0" cy="354.0" r="4.2" fill="#d62728"/>
<circle class="dot" cx="764.5" cy="353.4" r="4.2" fill="#d62728"/>
<circle class="dot" cx="772.9" cy="348.8" r="4.2" fill="#d62728"/>
<circle class="dot" cx="781.4" cy="346.4" r="4.2" fill="#d62728"/>
<circle class="dot" cx="789.8" cy="350.1" r="4.2" fill="#d62728"/>
<circle class="dot" cx="798.3" cy="348.7" r="4.2" fill="#d62728"/>
<circle class="dot" cx="806.8" cy="347.5" r="4.2" fill="#d62728"/>
<circle class="dot" cx="815.2" cy="349.4" r="4.2" fill="#d62728"/>
<circle class="dot" cx="823.7" cy="349.4" r="4.2" fill="#d62728"/>
<circle class="dot" cx="832.1" cy="351.4" r="4.2" fill="#d62728"/>
<circle class="dot" cx="840.6" cy="349.0" r="4.2" fill="#d62728"/>
<circle class="dot" cx="849.0" cy="346.8" r="4.2" fill="#d62728"/>
<circle class="dot" cx="857.5" cy="343.9" r="4.2" fill="#d62728"/>
<circle class="dot" cx="866.0" cy="347.2" r="4.2" fill="#d62728"/>
<circle class="dot" cx="874.4" cy="345.9" r="4.2" fill="#d62728"/>
<circle class="dot" cx="882.9" cy="345.8" r="4.2" fill="#d62728"/>
<circle class="dot" cx="891.3" cy="347.2" r="4.2" fill="#d62728"/>
<circle class="dot" cx="899.8" cy="348.9" r="4.2" fill="#d62728"/>
<circle class="dot" cx="908.2" cy="350.4" r="4.2" fill="#d62728"/>
<circle class="dot" cx="916.7" cy="347.1" r="4.2" fill="#d62728"/>
<circle class="dot" cx="925.1" cy="345.2" r="4.2" fill="#d62728"/>
<circle class="dot" cx="933.6" cy="343.6" r="4.2" fill="#d62728"/>
<circle class="dot" cx="942.1" cy="347.2" r="4.2" fill="#d62728"/>
<circle class="dot" cx="950.5" cy="344.5" r="4.2" fill="#d62728"/>
<circle class="dot" cx="959.0" cy="348.6" r="4.2" fill="#d62728"/>
<circle class="dot" cx="967.4" cy="349.0" r="4.2" fill="#d62728"/>
<circle class="dot" cx="975.9" cy="350.5" r="4.2" fill="#d62728"/>
<circle class="dot" cx="984.3" cy="347.8" r="4.2" fill="#d62728"/>
<circle class="dot" cx="992.8" cy="346.5" r="4.2" fill="#d62728"/>
<circle class="dot" cx="1001.2" cy="343.3" r="4.2" fill="#d62728"/>
<circle class="dot" cx="1009.7" cy="345.5" r="4.2" fill="#d62728"/>
<circle class="dot" cx="1018.2" cy="345.1" r="4.2" fill="#d62728"/>
<circle class="dot" cx="1026.6" cy="348.0" r="4.2" fill="#d62728"/>
<circle class="dot" cx="1035.1" cy="352.5" r="4.2" fill="#d62728"/>
<circle class="dot" cx="1043.5" cy="350.0" r="4.2" fill="#d62728"/>
<circle class="dot" cx="1052.0" cy="349.7" r="4.2" fill="#d62728"/>
<circle class="dot" cx="1060.4" cy="347.7" r="4.2" fill="#d62728"/>
<circle class="dot" cx="1068.9" cy="344.1" r="4.2" fill="#d62728"/>
<circle class="dot" cx="1077.4" cy="343.7" r="4.2" fill="#d62728"/>
<circle class="dot" cx="1085.8" cy="346.3" r="4.2" fill="#d62728"/>
<circle class="dot" cx="1094.3" cy="347.6" r="4.2" fill="#d62728"/>
<circle class="dot" cx="1102.7" cy="354.2" r="4.2" fill="#d62728"/>
<circle class="dot" cx="1111.2" cy="350.3" r="4.2" fill="#d62728"/>
<circle class="dot" cx="1119.6" cy="351.1" r="4.2" fill="#d62728"/>
<circle class="dot" cx="1128.1" cy="349.2" r="4.2" fill="#d62728"/>
<circle class="dot" cx="1136.5" cy="345.1" r="4.2" fill="#d62728"/>
<circle class="dot" cx="1145.0" cy="342.5" r="4.2" fill="#d62728"/>
<line x1="100" y1="122" x2="124" y2="122" stroke="#d62728" stroke-width="3"/>
<text x="132" y="126" font-size="13">DualAdaptiveClosure</text>
</svg>
