<svg xmlns="http://www.w3.org/2000/svg" width="1180" height="720" viewBox="0 0 1180 720" role="img">
<style>text{font-family:Arial,sans-serif;fill:#1f2d3a}.axis{stroke:#536575;stroke-width:1.4}.grid{stroke:#d8e0e8;stroke-width:1}.line{fill:none;stroke-width:2.4}.dot{stroke:#fff;stroke-width:1.2}</style>
<rect x="0" y="0" width="1180" height="720" fill="#f8fafc"/>
<text x="88" y="34" font-size="23" font-weight="700">Rollout Pressure Energy Error vs Re</text>
<line class="axis" x1="88" y1="628" x2="1145" y2="628"/>
<line class="axis" x1="88" y1="58" x2="88" y2="628"/>
<line class="grid" x1="88" y1="628.0" x2="1145" y2="628.0"/>
<text x="18" y="632.0" font-size="12">0</text>
<line class="grid" x1="88" y1="514.0" x2="1145" y2="514.0"/>
<text x="18" y="518.0" font-size="12">0.124</text>
<line class="grid" x1="88" y1="400.0" x2="1145" y2="400.0"/>
<text x="18" y="404.0" font-size="12">0.248</text>
<line class="grid" x1="88" y1="286.0" x2="1145" y2="286.0"/>
<text x="18" y="290.0" font-size="12">0.372</text>
<line class="grid" x1="88" y1="172.0" x2="1145" y2="172.0"/>
<text x="18" y="176.0" font-size="12">0.497</text>
<line class="grid" x1="88" y1="58.0" x2="1145" y2="58.0"/>
<text x="18" y="62.0" font-size="12">0.621</text>
<text x="66.0" y="656" font-size="12">50</text>
<text x="277.4" y="656" font-size="12">100</text>
<text x="488.8" y="656" font-size="12">150</text>
<text x="700.2" y="656" font-size="12">200</text>
<text x="911.6" y="656" font-size="12">250</text>
<text x="1123.0" y="656" font-size="12">300</text>
<text x="578.5" y="692" font-size="14">Reynolds number</text>
<text x="18" y="40" font-size="14">relative error</text>
<polyline class="line" points="88.0,349.6 206.8,494.8 324.7,613.4 437.8,628.0 556.4,607.5 668.4,617.1 786.7,610.3 909.7,620.2 1036.7,608.8 1145.0,555.1" stroke="#2ca02c"/>
<circle class="dot" cx="88.0" cy="349.6" r="4.2" fill="#2ca02c"/>
<circle class="dot" cx="206.8" cy="494.8" r="4.2" fill="#2ca02c"/>
<circle class="dot" cx="324.7" cy="613.4" r="4.2" fill="#2ca02c"/>
<circle class="dot" cx="437.8" cy="628.0" r="4.2" fill="#2ca02c"/>
<circle class="dot" cx="556.4" cy="607.5" r="4.2" fill="#2ca02c"/>
<circle class="dot" cx="668.4" cy="617.1" r="4.2" fill="#2ca02c"/>
<circle class="dot" cx="786.7" cy="610.3" r="4.2" fill="#2ca02c"/>
<circle class="dot" cx="909.7" cy="620.2" r="4.2" fill="#2ca02c"/>
<circle class="dot" cx="1036.7" cy="608.8" r="4.2" fill="#2ca02c"/>
<circle class="dot" cx="1145.0" cy="555.1" r="4.2" fill="#2ca02c"/>
<line x1="100" y1="78" x2="124" y2="78" stroke="#2ca02c" stroke-width="3"/>
<text x="132" y="82" font-size="13">AdaptiveBaseScaling</text>
<polyline class="line" points="88.0,294.0 206.8,558.3 324.7,605.8 437.8,612.0 556.4,613.6 668.4,607.2 786.7,625.8 909.7,615.0 1036.7,619.2 1145.0,549.8" stroke="#ff7f0e"/>
<circle class="dot" cx="88.0" cy="294.0" r="4.2" fill="#ff7f0e"/>
<circle class="dot" cx="206.8" cy="558.3" r="4.2" fill="#ff7f0e"/>
<circle class="dot" cx="324.7" cy="605.8" r="4.2" fill="#ff7f0e"/>
<circle class="dot" cx="437.8" cy="612.0" r="4.2" fill="#ff7f0e"/>
<circle class="dot" cx="556.4" cy="613.6" r="4.2" fill="#ff7f0e"/>
<circle class="dot" cx="668.4" cy="607.2" r="4.2" fill="#ff7f0e"/>
<circle class="dot" cx="786.7" cy="625.8" r="4.2" fill="#ff7f0e"/>
<circle class="dot" cx="909.7" cy="615.0" r="4.2" fill="#ff7f0e"/>
<circle class="dot" cx="1036.7" cy="619.2" r="4.2" fill="#ff7f0e"/>
<circle class="dot" cx="1145.0" cy="549.8" r="4.2" fill="#ff7f0e"/>
<line x1="100" y1="100" x2="124" y2="100" stroke="#ff7f0e" stroke-width="3"/>
<text x="132" y="104" font-size="13">AdaptiveResidualScaling</text>
<polyline class="line" points="88.0,230.8 206.8,535.1 324.7,612.7 437.8,603.4 556.4,607.8 668.4,603.7 786.7,613.5 909.7,619.1 1036.7,627.5 1145.0,564.1" stroke="#1f77b4"/>
<circle class="dot" cx="88.0" cy="230.8" r="4.2" fill="#1f77b4"/>
<circle class="dot" cx="206.8" cy="535.1" r="4.2" fill="#1f77b4"/>
<circle class="dot" cx="324.7" cy="612.7" r="4.2" fill="#1f77b4"/>
<circle class="dot" cx="437.8" cy="603.4" r="4.2" fill="#1f77b4"/>
<circle class="dot" cx="556.4" cy="607.8" r="4.2" fill="#1f77b4"/>
<circle class="dot" cx="668.4" cy="603.7" r="4.2" fill="#1f77b4"/>
<circle class="dot" cx="786.7" cy="613.5" r="4.2" fill="#1f77b4"/>
<circle class="dot" cx="909.7" cy="619.1" r="4.2" fill="#1f77b4"/>
<circle class="dot" cx="1036.7" cy="627.5" r="4.2" fill="#1f77b4"/>
<circle class="dot" cx="1145.0" cy="564.1" r="4.2" fill="#1f77b4"/>
<line x1="100" y1="122" x2="124" y2="122" stroke="#1f77b4" stroke-width="3"/>
<text x="132" y="126" font-size="13">Baseline</text>
<polyline class="line" points="88.0,100.2 206.8,504.7 324.7,594.9 437.8,614.3 556.4,616.6 668.4,580.7 786.7,592.8 909.7,627.3 1036.7,618.5 1145.0,567.1" stroke="#d62728"/>
<circle class="dot" cx="88.0" cy="100.2" r="4.2" fill="#d62728"/>
<circle class="dot" cx="206.8" cy="504.7" r="4.2" fill="#d62728"/>
<circle class="dot" cx="324.7" cy="594.9" r="4.2" fill="#d62728"/>
<circle class="dot" cx="437.8" cy="614.3" r="4.2" fill="#d62728"/>
<circle class="dot" cx="556.4" cy="616.6" r="4.2" fill="#d62728"/>
<circle class="dot" cx="668.4" cy="580.7" r="4.2" fill="#d62728"/>
<circle class="dot" cx="786.7" cy="592.8" r="4.2" fill="#d62728"/>
<circle class="dot" cx="909.7" cy="627.3" r="4.2" fill="#d62728"/>
<circle class="dot" cx="1036.7" cy="618.5" r="4.2" fill="#d62728"/>
<circle class="dot" cx="1145.0" cy="567.1" r="4.2" fill="#d62728"/>
<line x1="100" y1="144" x2="124" y2="144" stroke="#d62728" stroke-width="3"/>
<text x="132" y="148" font-size="13">DualAdaptiveClosure</text>
</svg>
