<svg xmlns="http://www.w3.org/2000/svg" width="1180" height="720" viewBox="0 0 1180 720" role="img">
<style>text{font-family:Arial,sans-serif;fill:#1f2d3a}.axis{stroke:#536575;stroke-width:1.4}.grid{stroke:#d8e0e8;stroke-width:1}.line{fill:none;stroke-width:2.4}.dot{stroke:#fff;stroke-width:1.2}</style>
<rect x="0" y="0" width="1180" height="720" fill="#f8fafc"/>
<text x="88" y="34" font-size="23" font-weight="700">One-step Pressure vs Re</text>
<line class="axis" x1="88" y1="628" x2="1145" y2="628"/>
<line class="axis" x1="88" y1="58" x2="88" y2="628"/>
<line class="grid" x1="88" y1="628.0" x2="1145" y2="628.0"/>
<text x="18" y="632.0" font-size="12">0</text>
<line class="grid" x1="88" y1="514.0" x2="1145" y2="514.0"/>
<text x="18" y="518.0" font-size="12">0.21</text>
<line class="grid" x1="88" y1="400.0" x2="1145" y2="400.0"/>
<text x="18" y="404.0" font-size="12">0.419</text>
<line class="grid" x1="88" y1="286.0" x2="1145" y2="286.0"/>
<text x="18" y="290.0" font-size="12">0.629</text>
<line class="grid" x1="88" y1="172.0" x2="1145" y2="172.0"/>
<text x="18" y="176.0" font-size="12">0.838</text>
<line class="grid" x1="88" y1="58.0" x2="1145" y2="58.0"/>
<text x="18" y="62.0" font-size="12">1.05</text>
<text x="66.0" y="656" font-size="12">50</text>
<text x="277.4" y="656" font-size="12">100</text>
<text x="488.8" y="656" font-size="12">150</text>
<text x="700.2" y="656" font-size="12">200</text>
<text x="911.6" y="656" font-size="12">250</text>
<text x="1123.0" y="656" font-size="12">300</text>
<text x="578.5" y="692" font-size="14">Reynolds number</text>
<text x="18" y="40" font-size="14">relative L2</text>
<polyline class="line" points="88.0,141.9 206.8,597.3 324.7,613.0 437.8,614.4 556.4,612.2 668.4,617.6 786.7,617.3 909.7,616.7 1036.7,615.0 1145.0,600.1" stroke="#2ca02c"/>
<circle class="dot" cx="88.0" cy="141.9" r="4.2" fill="#2ca02c"/>
<circle class="dot" cx="206.8" cy="597.3" r="4.2" fill="#2ca02c"/>
<circle class="dot" cx="324.7" cy="613.0" r="4.2" fill="#2ca02c"/>
<circle class="dot" cx="437.8" cy="614.4" r="4.2" fill="#2ca02c"/>
<circle class="dot" cx="556.4" cy="612.2" r="4.2" fill="#2ca02c"/>
<circle class="dot" cx="668.4" cy="617.6" r="4.2" fill="#2ca02c"/>
<circle class="dot" cx="786.7" cy="617.3" r="4.2" fill="#2ca02c"/>
<circle class="dot" cx="909.7" cy="616.7" r="4.2" fill="#2ca02c"/>
<circle class="dot" cx="1036.7" cy="615.0" r="4.2" fill="#2ca02c"/>
<circle class="dot" cx="1145.0" cy="600.1" r="4.2" fill="#2ca02c"/>
<line x1="100" y1="78" x2="124" y2="78" stroke="#2ca02c" stroke-width="3"/>
<text x="132" y="82" font-size="13">AdaptiveBaseScaling</text>
<polyline class="line" points="88.0,114.8 206.8,605.9 324.7,615.0 437.8,616.2 556.4,615.5 668.4,617.9 786.7,618.5 909.7,617.2 1036.7,616.2 1145.0,601.0" stroke="#ff7f0e"/>
<circle class="dot" cx="88.0" cy="114.8" r="4.2" fill="#ff7f0e"/>
<circle class="dot" cx="206.8" cy="605.9" r="4.2" fill="#ff7f0e"/>
<circle class="dot" cx="324.7" cy="615.0" r="4.2" fill="#ff7f0e"/>
<circle class="dot" cx="437.8" cy="616.2" r="4.2" fill="#ff7f0e"/>
<circle class="dot" cx="556.4" cy="615.5" r="4.2" fill="#ff7f0e"/>
<circle class="dot" cx="668.4" cy="617.9" r="4.2" fill="#ff7f0e"/>
<circle class="dot" cx="786.7" cy="618.5" r="4.2" fill="#ff7f0e"/>
<circle class="dot" cx="909.7" cy="617.2" r="4.2" fill="#ff7f0e"/>
<circle class="dot" cx="1036.7" cy="616.2" r="4.2" fill="#ff7f0e"/>
<circle class="dot" cx="1145.0" cy="601.0" r="4.2" fill="#ff7f0e"/>
<line x1="100" y1="100" x2="124" y2="100" stroke="#ff7f0e" stroke-width="3"/>
<text x="132" y="104" font-size="13">AdaptiveResidualScaling</text>
<polyline class="line" points="88.0,100.2 206.8,597.5 324.7,618.7 437.8,619.7 556.4,617.1 668.4,618.3 786.7,618.0 909.7,616.8 1036.7,614.9 1145.0,600.0" stroke="#1f77b4"/>
<circle class="dot" cx="88.0" cy="100.2" r="4.2" fill="#1f77b4"/>
<circle class="dot" cx="206.8" cy="597.5" r="4.2" fill="#1f77b4"/>
<circle class="dot" cx="324.7" cy="618.7" r="4.2" fill="#1f77b4"/>
<circle class="dot" cx="437.8" cy="619.7" r="4.2" fill="#1f77b4"/>
<circle class="dot" cx="556.4" cy="617.1" r="4.2" fill="#1f77b4"/>
<circle class="dot" cx="668.4" cy="618.3" r="4.2" fill="#1f77b4"/>
<circle class="dot" cx="786.7" cy="618.0" r="4.2" fill="#1f77b4"/>
<circle class="dot" cx="909.7" cy="616.8" r="4.2" fill="#1f77b4"/>
<circle class="dot" cx="1036.7" cy="614.9" r="4.2" fill="#1f77b4"/>
<circle class="dot" cx="1145.0" cy="600.0" r="4.2" fill="#1f77b4"/>
<line x1="100" y1="122" x2="124" y2="122" stroke="#1f77b4" stroke-width="3"/>
<text x="132" y="126" font-size="13">Baseline</text>
<polyline class="line" points="88.0,114.4 206.8,598.0 324.7,617.7 437.8,619.4 556.4,614.7 668.4,616.0 786.7,617.0 909.7,617.4 1036.7,614.6 1145.0,600.0" stroke="#d62728"/>
<circle class="dot" cx="88.0" cy="114.4" r="4.2" fill="#d62728"/>
<circle class="dot" cx="206.8" cy="598.0" r="4.2" fill="#d62728"/>
<circle class="dot" cx="324.7" cy="617.7" r="4.2" fill="#d62728"/>
<circle class="dot" cx="437.8" cy="619.4" r="4.2" fill="#d62728"/>
<circle class="dot" cx="556.4" cy="614.7" r="4.2" fill="#d62728"/>
<circle class="dot" cx="668.4" cy="616.0" r="4.2" fill="#d62728"/>
<circle class="dot" cx="786.7" cy="617.0" r="4.2" fill="#d62728"/>
<circle class="dot" cx="909.7" cy="617.4" r="4.2" fill="#d62728"/>
<circle class="dot" cx="1036.7" cy="614.6" r="4.2" fill="#d62728"/>
<circle class="dot" cx="1145.0" cy="600.0" r="4.2" fill="#d62728"/>
<line x1="100" y1="144" x2="124" y2="144" stroke="#d62728" stroke-width="3"/>
<text x="132" y="148" font-size="13">DualAdaptiveClosure</text>
</svg>
