<svg xmlns="http://www.w3.org/2000/svg" width="1180" height="720" viewBox="0 0 1180 720" role="img">
<style>text{font-family:Arial,sans-serif;fill:#1f2d3a}.axis{stroke:#536575;stroke-width:1.4}.grid{stroke:#d8e0e8;stroke-width:1}.line{fill:none;stroke-width:2.4}.dot{stroke:#fff;stroke-width:1.2}</style>
<rect x="0" y="0" width="1180" height="720" fill="#f8fafc"/>
<text x="88" y="34" font-size="23" font-weight="700">Adaptive Alpha Mean vs Re</text>
<line class="axis" x1="88" y1="628" x2="1145" y2="628"/>
<line class="axis" x1="88" y1="58" x2="88" y2="628"/>
<line class="grid" x1="88" y1="628.0" x2="1145" y2="628.0"/>
<text x="18" y="632.0" font-size="12">0</text>
<line class="grid" x1="88" y1="514.0" x2="1145" y2="514.0"/>
<text x="18" y="518.0" font-size="12">0.216</text>
<line class="grid" x1="88" y1="400.0" x2="1145" y2="400.0"/>
<text x="18" y="404.0" font-size="12">0.432</text>
<line class="grid" x1="88" y1="286.0" x2="1145" y2="286.0"/>
<text x="18" y="290.0" font-size="12">0.648</text>
<line class="grid" x1="88" y1="172.0" x2="1145" y2="172.0"/>
<text x="18" y="176.0" font-size="12">0.864</text>
<line class="grid" x1="88" y1="58.0" x2="1145" y2="58.0"/>
<text x="18" y="62.0" font-size="12">1.08</text>
<text x="66.0" y="656" font-size="12">50</text>
<text x="277.4" y="656" font-size="12">100</text>
<text x="488.8" y="656" font-size="12">150</text>
<text x="700.2" y="656" font-size="12">200</text>
<text x="911.6" y="656" font-size="12">250</text>
<text x="1123.0" y="656" font-size="12">300</text>
<text x="578.5" y="692" font-size="14">Reynolds number</text>
<text x="18" y="40" font-size="14">alpha</text>
<polyline class="line" points="88.0,191.3 206.8,116.5 324.7,100.7 437.8,100.3 556.4,100.2 668.4,100.2 786.7,100.2 909.7,100.2 1036.7,100.3 1145.0,100.4" stroke="#2ca02c"/>
<circle class="dot" cx="88.0" cy="191.3" r="4.2" fill="#2ca02c"/>
<circle class="dot" cx="206.8" cy="116.5" r="4.2" fill="#2ca02c"/>
<circle class="dot" cx="324.7" cy="100.7" r="4.2" fill="#2ca02c"/>
<circle class="dot" cx="437.8" cy="100.3" r="4.2" fill="#2ca02c"/>
<circle class="dot" cx="556.4" cy="100.2" r="4.2" fill="#2ca02c"/>
<circle class="dot" cx="668.4" cy="100.2" r="4.2" fill="#2ca02c"/>
<circle class="dot" cx="786.7" cy="100.2" r="4.2" fill="#2ca02c"/>
<circle class="dot" cx="909.7" cy="100.2" r="4.2" fill="#2ca02c"/>
<circle class="dot" cx="1036.7" cy="100.3" r="4.2" fill="#2ca02c"/>
<circle class="dot" cx="1145.0" cy="100.4" r="4.2" fill="#2ca02c"/>
<line x1="100" y1="78" x2="124" y2="78" stroke="#2ca02c" stroke-width="3"/>
<text x="132" y="82" font-size="13">AdaptiveBaseScaling</text>
<polyline class="line" points="88.0,156.6 206.8,111.5 324.7,104.3 437.8,103.4 556.4,103.0 668.4,103.0 786.7,103.0 909.7,102.7 1036.7,102.4 1145.0,102.6" stroke="#ff7f0e"/>
<circle class="dot" cx="88.0" cy="156.6" r="4.2" fill="#ff7f0e"/>
<circle class="dot" cx="206.8" cy="111.5" r="4.2" fill="#ff7f0e"/>
<circle class="dot" cx="324.7" cy="104.3" r="4.2" fill="#ff7f0e"/>
<circle class="dot" cx="437.8" cy="103.4" r="4.2" fill="#ff7f0e"/>
<circle class="dot" cx="556.4" cy="103.0" r="4.2" fill="#ff7f0e"/>
<circle class="dot" cx="668.4" cy="103.0" r="4.2" fill="#ff7f0e"/>
<circle class="dot" cx="786.7" cy="103.0" r="4.2" fill="#ff7f0e"/>
<circle class="dot" cx="909.7" cy="102.7" r="4.2" fill="#ff7f0e"/>
<circle class="dot" cx="1036.7" cy="102.4" r="4.2" fill="#ff7f0e"/>
<circle class="dot" cx="1145.0" cy="102.6" r="4.2" fill="#ff7f0e"/>
<line x1="100" y1="100" x2="124" y2="100" stroke="#ff7f0e" stroke-width="3"/>
<text x="132" y="104" font-size="13">AdaptiveResidualScaling</text>
<polyline class="line" points="88.0,230.6 206.8,165.9 324.7,110.8 437.8,106.1 556.4,104.3 668.4,104.1 786.7,104.5 909.7,104.9 1036.7,104.9 1145.0,105.6" stroke="#d62728"/>
<circle class="dot" cx="88.0" cy="230.6" r="4.2" fill="#d62728"/>
<circle class="dot" cx="206.8" cy="165.9" r="4.2" fill="#d62728"/>
<circle class="dot" cx="324.7" cy="110.8" r="4.2" fill="#d62728"/>
<circle class="dot" cx="437.8" cy="106.1" r="4.2" fill="#d62728"/>
<circle class="dot" cx="556.4" cy="104.3" r="4.2" fill="#d62728"/>
<circle class="dot" cx="668.4" cy="104.1" r="4.2" fill="#d62728"/>
<circle class="dot" cx="786.7" cy="104.5" r="4.2" fill="#d62728"/>
<circle class="dot" cx="909.7" cy="104.9" r="4.2" fill="#d62728"/>
<circle class="dot" cx="1036.7" cy="104.9" r="4.2" fill="#d62728"/>
<circle class="dot" cx="1145.0" cy="105.6" r="4.2" fill="#d62728"/>
<line x1="100" y1="144" x2="124" y2="144" stroke="#d62728" stroke-width="3"/>
<text x="132" y="148" font-size="13">DualAdaptiveClosure</text>
</svg>
