<svg xmlns="http://www.w3.org/2000/svg" width="1180" height="720" viewBox="0 0 1180 720" role="img">
<style>text{font-family:Arial,sans-serif;fill:#1f2d3a}.axis{stroke:#536575;stroke-width:1.4}.grid{stroke:#d8e0e8;stroke-width:1}.line{fill:none;stroke-width:2.4}.dot{stroke:#fff;stroke-width:1.2}</style>
<rect x="0" y="0" width="1180" height="720" fill="#f8fafc"/>
<text x="88" y="34" font-size="23" font-weight="700">beta time evolution at Re=300</text>
<line class="axis" x1="88" y1="628" x2="1145" y2="628"/>
<line class="axis" x1="88" y1="58" x2="88" y2="628"/>
<line class="grid" x1="88" y1="628.0" x2="1145" y2="628.0"/>
<text x="18" y="632.0" font-size="12">-0.55</text>
<line class="grid" x1="88" y1="514.0" x2="1145" y2="514.0"/>
<text x="18" y="518.0" font-size="12">-0.33</text>
<line class="grid" x1="88" y1="400.0" x2="1145" y2="400.0"/>
<text x="18" y="404.0" font-size="12">-0.11</text>
<line class="grid" x1="88" y1="286.0" x2="1145" y2="286.0"/>
<text x="18" y="290.0" font-size="12">0.11</text>
<line class="grid" x1="88" y1="172.0" x2="1145" y2="172.0"/>
<text x="18" y="176.0" font-size="12">0.33</text>
<line class="grid" x1="88" y1="58.0" x2="1145" y2="58.0"/>
<text x="18" y="62.0" font-size="12">0.55</text>
<text x="66.0" y="656" font-size="12">77</text>
<text x="277.4" y="656" font-size="12">133</text>
<text x="488.8" y="656" font-size="12">189</text>
<text x="700.2" y="656" font-size="12">245</text>
<text x="911.6" y="656" font-size="12">302</text>
<text x="1123.0" y="656" font-size="12">358</text>
<text x="578.5" y="692" font-size="14">time</text>
<text x="18" y="40" font-size="14">beta</text>
<polyline class="line" points="88.0,343.0 96.5,343.0 104.9,343.0 113.4,343.0 121.8,343.0 130.3,343.0 138.7,343.0 147.2,343.0 155.6,343.0 164.1,343.0 172.6,343.0 181.0,343.0 189.5,343.0 197.9,343.0 206.4,343.0 214.8,343.0 223.3,343.0 231.8,343.0 240.2,343.0 248.7,343.0 257.1,343.0 265.6,343.0 274.0,343.0 282.5,343.0 290.9,343.0 299.4,343.0 307.9,343.0 316.3,343.0 324.8,343.0 333.2,343.0 341.7,343.0 350.1,343.0 358.6,343.0 367.0,343.0 375.5,343.0 384.0,343.0 392.4,343.0 400.9,343.0 409.3,343.0 417.8,343.0 426.2,343.0 434.7,343.0 443.2,343.0 451.6,343.0 460.1,343.0 468.5,343.0 477.0,343.0 485.4,343.0 493.9,343.0 502.3,343.0 510.8,343.0 519.3,343.0 527.7,343.0 536.2,343.0 544.6,343.0 553.1,343.0 561.5,343.0 570.0,343.0 578.4,343.0 586.9,343.0 595.4,343.0 603.8,343.0 612.3,343.0 620.7,343.0 629.2,343.0 637.6,343.0 646.1,343.0 654.6,343.0 663.0,343.0 671.5,343.0 679.9,343.0 688.4,343.0 696.8,343.0 705.3,343.0 713.7,343.0 722.2,343.0 730.7,343.0 739.1,343.0 747.6,343.0 756.0,343.0 764.5,343.0 772.9,343.0 781.4,343.0 789.8,343.0 798.3,343.0 806.8,343.0 815.2,343.0 823.7,343.0 832.1,343.0 840.6,343.0 849.0,343.0 857.5,343.0 866.0,343.0 874.4,343.0 882.9,343.0 891.3,343.0 899.8,343.0 908.2,343.0 916.7,343.0 925.1,343.0 933.6,343.0 942.1,343.0 950.5,343.0 959.0,343.0 967.4,343.0 975.9,343.0 984.3,343.0 992.8,343.0 1001.2,343.0 1009.7,343.0 1018.2,343.0 1026.6,343.0 1035.1,343.0 1043.5,343.0 1052.0,343.0 1060.4,343.0 1068.9,343.0 1077.4,343.0 1085.8,343.0 1094.3,343.0 1102.7,343.0 1111.2,343.0 1119.6,343.0 1128.1,343.0 1136.5,343.0 1145.0,343.0" stroke="#2ca02c"/>
<circle class="dot" cx="88.0" cy="343.0" r="4.2" fill="#2ca02c"/>
<circle class="dot" cx="96.5" cy="343.0" r="4.2" fill="#2ca02c"/>
<circle class="dot" cx="104.9" cy="343.0" r="4.2" fill="#2ca02c"/>
<circle class="dot" cx="113.4" cy="343.0" r="4.2" fill="#2ca02c"/>
<circle class="dot" cx="121.8" cy="343.0" r="4.2" fill="#2ca02c"/>
<circle class="dot" cx="130.3" cy="343.0" r="4.2" fill="#2ca02c"/>
<circle class="dot" cx="138.7" cy="343.0" r="4.2" fill="#2ca02c"/>
<circle class="dot" cx="147.2" cy="343.0" r="4.2" fill="#2ca02c"/>
<circle class="dot" cx="155.6" cy="343.0" r="4.2" fill="#2ca02c"/>
<circle class="dot" cx="164.1" cy="343.0" r="4.2" fill="#2ca02c"/>
<circle class="dot" cx="172.6" cy="343.0" r="4.2" fill="#2ca02c"/>
<circle class="dot" cx="181.0" cy="343.0" r="4.2" fill="#2ca02c"/>
<circle class="dot" cx="189.5" cy="343.0" r="4.2" fill="#2ca02c"/>
<circle class="dot" cx="197.9" cy="343.0" r="4.2" fill="#2ca02c"/>
<circle class="dot" cx="206.4" cy="343.0" r="4.2" fill="#2ca02c"/>
<circle class="dot" cx="214.8" cy="343.0" r="4.2" fill="#2ca02c"/>
<circle class="dot" cx="223.3" cy="343.0" r="4.2" fill="#2ca02c"/>
<circle class="dot" cx="231.8" cy="343.0" r="4.2" fill="#2ca02c"/>
<circle class="dot" cx="240.2" cy="343.0" r="4.2" fill="#2ca02c"/>
<circle class="dot" cx="248.7" cy="343.0" r="4.2" fill="#2ca02c"/>
<circle class="dot" cx="257.1" cy="343.0" r="4.2" fill="#2ca02c"/>
<circle class="dot" cx="265.6" cy="343.0" r="4.2" fill="#2ca02c"/>
<circle class="dot" cx="274.0" cy="343.0" r="4.2" fill="#2ca02c"/>
<circle class="dot" cx="282.5" cy="343.0" r="4.2" fill="#2ca02c"/>
<circle class="dot" cx="290.9" cy="343.0" r="4.2" fill="#2ca02c"/>
<circle class="dot" cx="299.4" cy="343.0" r="4.2" fill="#2ca02c"/>
<circle class="dot" cx="307.9" cy="343.0" r="4.2" fill="#2ca02c"/>
<circle class="dot" cx="316.3" cy="343.0" r="4.2" fill="#2ca02c"/>
<circle class="dot" cx="324.8" cy="343.0" r="4.2" fill="#2ca02c"/>
<circle class="dot" cx="333.2" cy="343.0" r="4.2" fill="#2ca02c"/>
<circle class="dot" cx="341.7" cy="343.0" r="4.2" fill="#2ca02c"/>
<circle class="dot" cx="350.1" cy="343.0" r="4.2" fill="#2ca02c"/>
<circle class="dot" cx="358.6" cy="343.0" r="4.2" fill="#2ca02c"/>
<circle class="dot" cx="367.0" cy="343.0" r="4.2" fill="#2ca02c"/>
<circle class="dot" cx="375.5" cy="343.0" r="4.2" fill="#2ca02c"/>
<circle class="dot" cx="384.0" cy="343.0" r="4.2" fill="#2ca02c"/>
<circle class="dot" cx="392.4" cy="343.0" r="4.2" fill="#2ca02c"/>
<circle class="dot" cx="400.9" cy="343.0" r="4.2" fill="#2ca02c"/>
<circle class="dot" cx="409.3" cy="343.0" r="4.2" fill="#2ca02c"/>
<circle class="dot" cx="417.8" cy="343.0" r="4.2" fill="#2ca02c"/>
<circle class="dot" cx="426.2" cy="343.0" r="4.2" fill="#2ca02c"/>
<circle class="dot" cx="434.7" cy="343.0" r="4.2" fill="#2ca02c"/>
<circle class="dot" cx="443.2" cy="343.0" r="4.2" fill="#2ca02c"/>
<circle class="dot" cx="451.6" cy="343.0" r="4.2" fill="#2ca02c"/>
<circle class="dot" cx="460.1" cy="343.0" r="4.2" fill="#2ca02c"/>
<circle class="dot" cx="468.5" cy="343.0" r="4.2" fill="#2ca02c"/>
<circle class="dot" cx="477.0" cy="343.0" r="4.2" fill="#2ca02c"/>
<circle class="dot" cx="485.4" cy="343.0" r="4.2" fill="#2ca02c"/>
<circle class="dot" cx="493.9" cy="343.0" r="4.2" fill="#2ca02c"/>
<circle class="dot" cx="502.3" cy="343.0" r="4.2" fill="#2ca02c"/>
<circle class="dot" cx="510.8" cy="343.0" r="4.2" fill="#2ca02c"/>
<circle class="dot" cx="519.3" cy="343.0" r="4.2" fill="#2ca02c"/>
<circle class="dot" cx="527.7" cy="343.0" r="4.2" fill="#2ca02c"/>
<circle class="dot" cx="536.2" cy="343.0" r="4.2" fill="#2ca02c"/>
<circle class="dot" cx="544.6" cy="343.0" r="4.2" fill="#2ca02c"/>
<circle class="dot" cx="553.1" cy="343.0" r="4.2" fill="#2ca02c"/>
<circle class="dot" cx="561.5" cy="343.0" r="4.2" fill="#2ca02c"/>
<circle class="dot" cx="570.0" cy="343.0" r="4.2" fill="#2ca02c"/>
<circle class="dot" cx="578.4" cy="343.0" r="4.2" fill="#2ca02c"/>
<circle class="dot" cx="586.9" cy="343.0" r="4.2" fill="#2ca02c"/>
<circle class="dot" cx="595.4" cy="343.0" r="4.2" fill="#2ca02c"/>
<circle class="dot" cx="603.8" cy="343.0" r="4.2" fill="#2ca02c"/>
<circle class="dot" cx="612.3" cy="343.0" r="4.2" fill="#2ca02c"/>
<circle class="dot" cx="620.7" cy="343.0" r="4.2" fill="#2ca02c"/>
<circle class="dot" cx="629.2" cy="343.0" r="4.2" fill="#2ca02c"/>
<circle class="dot" cx="637.6" cy="343.0" r="4.2" fill="#2ca02c"/>
<circle class="dot" cx="646.1" cy="343.0" r="4.2" fill="#2ca02c"/>
<circle class="dot" cx="654.6" cy="343.0" r="4.2" fill="#2ca02c"/>
<circle class="dot" cx="663.0" cy="343.0" r="4.2" fill="#2ca02c"/>
<circle class="dot" cx="671.5" cy="343.0" r="4.2" fill="#2ca02c"/>
<circle class="dot" cx="679.9" cy="343.0" r="4.2" fill="#2ca02c"/>
<circle class="dot" cx="688.4" cy="343.0" r="4.2" fill="#2ca02c"/>
<circle class="dot" cx="696.8" cy="343.0" r="4.2" fill="#2ca02c"/>
<circle class="dot" cx="705.3" cy="343.0" r="4.2" fill="#2ca02c"/>
<circle class="dot" cx="713.7" cy="343.0" r="4.2" fill="#2ca02c"/>
<circle class="dot" cx="722.2" cy="343.0" r="4.2" fill="#2ca02c"/>
<circle class="dot" cx="730.7" cy="343.0" r="4.2" fill="#2ca02c"/>
<circle class="dot" cx="739.1" cy="343.0" r="4.2" fill="#2ca02c"/>
<circle class="dot" cx="747.6" cy="343.0" r="4.2" fill="#2ca02c"/>
<circle class="dot" cx="756.0" cy="343.0" r="4.2" fill="#2ca02c"/>
<circle class="dot" cx="764.5" cy="343.0" r="4.2" fill="#2ca02c"/>
<circle class="dot" cx="772.9" cy="343.0" r="4.2" fill="#2ca02c"/>
<circle class="dot" cx="781.4" cy="343.0" r="4.2" fill="#2ca02c"/>
<circle class="dot" cx="789.8" cy="343.0" r="4.2" fill="#2ca02c"/>
<circle class="dot" cx="798.3" cy="343.0" r="4.2" fill="#2ca02c"/>
<circle class="dot" cx="806.8" cy="343.0" r="4.2" fill="#2ca02c"/>
<circle class="dot" cx="815.2" cy="343.0" r="4.2" fill="#2ca02c"/>
<circle class="dot" cx="823.7" cy="343.0" r="4.2" fill="#2ca02c"/>
<circle class="dot" cx="832.1" cy="343.0" r="4.2" fill="#2ca02c"/>
<circle class="dot" cx="840.6" cy="343.0" r="4.2" fill="#2ca02c"/>
<circle class="dot" cx="849.0" cy="343.0" r="4.2" fill="#2ca02c"/>
<circle class="dot" cx="857.5" cy="343.0" r="4.2" fill="#2ca02c"/>
<circle class="dot" cx="866.0" cy="343.0" r="4.2" fill="#2ca02c"/>
<circle class="dot" cx="874.4" cy="343.0" r="4.2" fill="#2ca02c"/>
<circle class="dot" cx="882.9" cy="343.0" r="4.2" fill="#2ca02c"/>
<circle class="dot" cx="891.3" cy="343.0" r="4.2" fill="#2ca02c"/>
<circle class="dot" cx="899.8" cy="343.0" r="4.2" fill="#2ca02c"/>
<circle class="dot" cx="908.2" cy="343.0" r="4.2" fill="#2ca02c"/>
<circle class="dot" cx="916.7" cy="343.0" r="4.2" fill="#2ca02c"/>
<circle class="dot" cx="925.1" cy="343.0" r="4.2" fill="#2ca02c"/>
<circle class="dot" cx="933.6" cy="343.0" r="4.2" fill="#2ca02c"/>
<circle class="dot" cx="942.1" cy="343.0" r="4.2" fill="#2ca02c"/>
<circle class="dot" cx="950.5" cy="343.0" r="4.2" fill="#2ca02c"/>
<circle class="dot" cx="959.0" cy="343.0" r="4.2" fill="#2ca02c"/>
<circle class="dot" cx="967.4" cy="343.0" r="4.2" fill="#2ca02c"/>
<circle class="dot" cx="975.9" cy="343.0" r="4.2" fill="#2ca02c"/>
<circle class="dot" cx="984.3" cy="343.0" r="4.2" fill="#2ca02c"/>
<circle class="dot" cx="992.8" cy="343.0" r="4.2" fill="#2ca02c"/>
<circle class="dot" cx="1001.2" cy="343.0" r="4.2" fill="#2ca02c"/>
<circle class="dot" cx="1009.7" cy="343.0" r="4.2" fill="#2ca02c"/>
<circle class="dot" cx="1018.2" cy="343.0" r="4.2" fill="#2ca02c"/>
<circle class="dot" cx="1026.6" cy="343.0" r="4.2" fill="#2ca02c"/>
<circle class="dot" cx="1035.1" cy="343.0" r="4.2" fill="#2ca02c"/>
<circle class="dot" cx="1043.5" cy="343.0" r="4.2" fill="#2ca02c"/>
<circle class="dot" cx="1052.0" cy="343.0" r="4.2" fill="#2ca02c"/>
<circle class="dot" cx="1060.4" cy="343.0" r="4.2" fill="#2ca02c"/>
<circle class="dot" cx="1068.9" cy="343.0" r="4.2" fill="#2ca02c"/>
<circle class="dot" cx="1077.4" cy="343.0" r="4.2" fill="#2ca02c"/>
<circle class="dot" cx="1085.8" cy="343.0" r="4.2" fill="#2ca02c"/>
<circle class="dot" cx="1094.3" cy="343.0" r="4.2" fill="#2ca02c"/>
<circle class="dot" cx="1102.7" cy="343.0" r="4.2" fill="#2ca02c"/>
<circle class="dot" cx="1111.2" cy="343.0" r="4.2" fill="#2ca02c"/>
<circle class="dot" cx="1119.6" cy="343.0" r="4.2" fill="#2ca02c"/>
<circle class="dot" cx="1128.1" cy="343.0" r="4.2" fill="#2ca02c"/>
<circle class="dot" cx="1136.5" cy="343.0" r="4.2" fill="#2ca02c"/>
<circle class="dot" cx="1145.0" cy="343.0" r="4.2" fill="#2ca02c"/>
<line x1="100" y1="78" x2="124" y2="78" stroke="#2ca02c" stroke-width="3"/>
<text x="132" y="82" font-size="13">AdaptiveBaseScaling</text>
<polyline class="line" points="88.0,343.0 96.5,343.0 104.9,343.0 113.4,343.0 121.8,343.0 130.3,343.0 138.7,343.0 147.2,343.0 155.6,343.0 164.1,343.0 172.6,343.0 181.0,343.0 189.5,343.0 197.9,343.0 206.4,343.0 214.8,343.0 223.3,343.0 231.8,343.0 240.2,343.0 248.7,343.0 257.1,343.0 265.6,343.0 274.0,343.0 282.5,343.0 290.9,343.0 299.4,343.0 307.9,343.0 316.3,343.0 324.8,343.0 333.2,343.0 341.7,343.0 350.1,343.0 358.6,343.0 367.0,343.0 375.5,343.0 384.0,343.0 392.4,343.0 400.9,343.0 409.3,343.0 417.8,343.0 426.2,343.0 434.7,343.0 443.2,343.0 451.6,343.0 460.1,343.0 468.5,343.0 477.0,343.0 485.4,343.0 493.9,343.0 502.3,343.0 510.8,343.0 519.3,343.0 527.7,343.0 536.2,343.0 544.6,343.0 553.1,343.0 561.5,343.0 570.0,343.0 578.4,343.0 586.9,343.0 595.4,343.0 603.8,343.0 612.3,343.0 620.7,343.0 629.2,343.0 637.6,343.0 646.1,343.0 654.6,343.0 663.0,343.0 671.5,343.0 679.9,343.0 688.4,343.0 696.8,343.0 705.3,343.0 713.7,343.0 722.2,343.0 730.7,343.0 739.1,343.0 747.6,343.0 756.0,343.0 764.5,343.0 772.9,343.0 781.4,343.0 789.8,343.0 798.3,343.0 806.8,343.0 815.2,343.0 823.7,343.0 832.1,343.0 840.6,343.0 849.0,343.0 857.5,343.0 866.0,343.0 874.4,343.0 882.9,343.0 891.3,343.0 899.8,343.0 908.2,343.0 916.7,343.0 925.1,343.0 933.6,343.0 942.1,343.0 950.5,343.0 959.0,343.0 967.4,343.0 975.9,343.0 984.3,343.0 992.8,343.0 1001.2,343.0 1009.7,343.0 1018.2,343.0 1026.6,343.0 1035.1,343.0 1043.5,343.0 1052.0,343.0 1060.4,343.0 1068.9,343.0 1077.4,343.0 1085.8,343.0 1094.3,343.0 1102.7,343.0 1111.2,343.0 1119.6,343.0 1128.1,343.0 1136.5,343.0 1145.0,343.0" stroke="#ff7f0e"/>
<circle class="dot" cx="88.0" cy="343.0" r="4.2" fill="#ff7f0e"/>
<circle class="dot" cx="96.5" cy="343.0" r="4.2" fill="#ff7f0e"/>
<circle class="dot" cx="104.9" cy="343.0" r="4.2" fill="#ff7f0e"/>
<circle class="dot" cx="113.4" cy="343.0" r="4.2" fill="#ff7f0e"/>
<circle class="dot" cx="121.8" cy="343.0" r="4.2" fill="#ff7f0e"/>
<circle class="dot" cx="130.3" cy="343.0" r="4.2" fill="#ff7f0e"/>
<circle class="dot" cx="138.7" cy="343.0" r="4.2" fill="#ff7f0e"/>
<circle class="dot" cx="147.2" cy="343.0" r="4.2" fill="#ff7f0e"/>
<circle class="dot" cx="155.6" cy="343.0" r="4.2" fill="#ff7f0e"/>
<circle class="dot" cx="164.1" cy="343.0" r="4.2" fill="#ff7f0e"/>
<circle class="dot" cx="172.6" cy="343.0" r="4.2" fill="#ff7f0e"/>
<circle class="dot" cx="181.0" cy="343.0" r="4.2" fill="#ff7f0e"/>
<circle class="dot" cx="189.5" cy="343.0" r="4.2" fill="#ff7f0e"/>
<circle class="dot" cx="197.9" cy="343.0" r="4.2" fill="#ff7f0e"/>
<circle class="dot" cx="206.4" cy="343.0" r="4.2" fill="#ff7f0e"/>
<circle class="dot" cx="214.8" cy="343.0" r="4.2" fill="#ff7f0e"/>
<circle class="dot" cx="223.3" cy="343.0" r="4.2" fill="#ff7f0e"/>
<circle class="dot" cx="231.8" cy="343.0" r="4.2" fill="#ff7f0e"/>
<circle class="dot" cx="240.2" cy="343.0" r="4.2" fill="#ff7f0e"/>
<circle class="dot" cx="248.7" cy="343.0" r="4.2" fill="#ff7f0e"/>
<circle class="dot" cx="257.1" cy="343.0" r="4.2" fill="#ff7f0e"/>
<circle class="dot" cx="265.6" cy="343.0" r="4.2" fill="#ff7f0e"/>
<circle class="dot" cx="274.0" cy="343.0" r="4.2" fill="#ff7f0e"/>
<circle class="dot" cx="282.5" cy="343.0" r="4.2" fill="#ff7f0e"/>
<circle class="dot" cx="290.9" cy="343.0" r="4.2" fill="#ff7f0e"/>
<circle class="dot" cx="299.4" cy="343.0" r="4.2" fill="#ff7f0e"/>
<circle class="dot" cx="307.9" cy="343.0" r="4.2" fill="#ff7f0e"/>
<circle class="dot" cx="316.3" cy="343.0" r="4.2" fill="#ff7f0e"/>
<circle class="dot" cx="324.8" cy="343.0" r="4.2" fill="#ff7f0e"/>
<circle class="dot" cx="333.2" cy="343.0" r="4.2" fill="#ff7f0e"/>
<circle class="dot" cx="341.7" cy="343.0" r="4.2" fill="#ff7f0e"/>
<circle class="dot" cx="350.1" cy="343.0" r="4.2" fill="#ff7f0e"/>
<circle class="dot" cx="358.6" cy="343.0" r="4.2" fill="#ff7f0e"/>
<circle class="dot" cx="367.0" cy="343.0" r="4.2" fill="#ff7f0e"/>
<circle class="dot" cx="375.5" cy="343.0" r="4.2" fill="#ff7f0e"/>
<circle class="dot" cx="384.0" cy="343.0" r="4.2" fill="#ff7f0e"/>
<circle class="dot" cx="392.4" cy="343.0" r="4.2" fill="#ff7f0e"/>
<circle class="dot" cx="400.9" cy="343.0" r="4.2" fill="#ff7f0e"/>
<circle class="dot" cx="409.3" cy="343.0" r="4.2" fill="#ff7f0e"/>
<circle class="dot" cx="417.8" cy="343.0" r="4.2" fill="#ff7f0e"/>
<circle class="dot" cx="426.2" cy="343.0" r="4.2" fill="#ff7f0e"/>
<circle class="dot" cx="434.7" cy="343.0" r="4.2" fill="#ff7f0e"/>
<circle class="dot" cx="443.2" cy="343.0" r="4.2" fill="#ff7f0e"/>
<circle class="dot" cx="451.6" cy="343.0" r="4.2" fill="#ff7f0e"/>
<circle class="dot" cx="460.1" cy="343.0" r="4.2" fill="#ff7f0e"/>
<circle class="dot" cx="468.5" cy="343.0" r="4.2" fill="#ff7f0e"/>
<circle class="dot" cx="477.0" cy="343.0" r="4.2" fill="#ff7f0e"/>
<circle class="dot" cx="485.4" cy="343.0" r="4.2" fill="#ff7f0e"/>
<circle class="dot" cx="493.9" cy="343.0" r="4.2" fill="#ff7f0e"/>
<circle class="dot" cx="502.3" cy="343.0" r="4.2" fill="#ff7f0e"/>
<circle class="dot" cx="510.8" cy="343.0" r="4.2" fill="#ff7f0e"/>
<circle class="dot" cx="519.3" cy="343.0" r="4.2" fill="#ff7f0e"/>
<circle class="dot" cx="527.7" cy="343.0" r="4.2" fill="#ff7f0e"/>
<circle class="dot" cx="536.2" cy="343.0" r="4.2" fill="#ff7f0e"/>
<circle class="dot" cx="544.6" cy="343.0" r="4.2" fill="#ff7f0e"/>
<circle class="dot" cx="553.1" cy="343.0" r="4.2" fill="#ff7f0e"/>
<circle class="dot" cx="561.5" cy="343.0" r="4.2" fill="#ff7f0e"/>
<circle class="dot" cx="570.0" cy="343.0" r="4.2" fill="#ff7f0e"/>
<circle class="dot" cx="578.4" cy="343.0" r="4.2" fill="#ff7f0e"/>
<circle class="dot" cx="586.9" cy="343.0" r="4.2" fill="#ff7f0e"/>
<circle class="dot" cx="595.4" cy="343.0" r="4.2" fill="#ff7f0e"/>
<circle class="dot" cx="603.8" cy="343.0" r="4.2" fill="#ff7f0e"/>
<circle class="dot" cx="612.3" cy="343.0" r="4.2" fill="#ff7f0e"/>
<circle class="dot" cx="620.7" cy="343.0" r="4.2" fill="#ff7f0e"/>
<circle class="dot" cx="629.2" cy="343.0" r="4.2" fill="#ff7f0e"/>
<circle class="dot" cx="637.6" cy="343.0" r="4.2" fill="#ff7f0e"/>
<circle class="dot" cx="646.1" cy="343.0" r="4.2" fill="#ff7f0e"/>
<circle class="dot" cx="654.6" cy="343.0" r="4.2" fill="#ff7f0e"/>
<circle class="dot" cx="663.0" cy="343.0" r="4.2" fill="#ff7f0e"/>
<circle class="dot" cx="671.5" cy="343.0" r="4.2" fill="#ff7f0e"/>
<circle class="dot" cx="679.9" cy="343.0" r="4.2" fill="#ff7f0e"/>
<circle class="dot" cx="688.4" cy="343.0" r="4.2" fill="#ff7f0e"/>
<circle class="dot" cx="696.8" cy="343.0" r="4.2" fill="#ff7f0e"/>
<circle class="dot" cx="705.3" cy="343.0" r="4.2" fill="#ff7f0e"/>
<circle class="dot" cx="713.7" cy="343.0" r="4.2" fill="#ff7f0e"/>
<circle class="dot" cx="722.2" cy="343.0" r="4.2" fill="#ff7f0e"/>
<circle class="dot" cx="730.7" cy="343.0" r="4.2" fill="#ff7f0e"/>
<circle class="dot" cx="739.1" cy="343.0" r="4.2" fill="#ff7f0e"/>
<circle class="dot" cx="747.6" cy="343.0" r="4.2" fill="#ff7f0e"/>
<circle class="dot" cx="756.0" cy="343.0" r="4.2" fill="#ff7f0e"/>
<circle class="dot" cx="764.5" cy="343.0" r="4.2" fill="#ff7f0e"/>
<circle class="dot" cx="772.9" cy="343.0" r="4.2" fill="#ff7f0e"/>
<circle class="dot" cx="781.4" cy="343.0" r="4.2" fill="#ff7f0e"/>
<circle class="dot" cx="789.8" cy="343.0" r="4.2" fill="#ff7f0e"/>
<circle class="dot" cx="798.3" cy="343.0" r="4.2" fill="#ff7f0e"/>
<circle class="dot" cx="806.8" cy="343.0" r="4.2" fill="#ff7f0e"/>
<circle class="dot" cx="815.2" cy="343.0" r="4.2" fill="#ff7f0e"/>
<circle class="dot" cx="823.7" cy="343.0" r="4.2" fill="#ff7f0e"/>
<circle class="dot" cx="832.1" cy="343.0" r="4.2" fill="#ff7f0e"/>
<circle class="dot" cx="840.6" cy="343.0" r="4.2" fill="#ff7f0e"/>
<circle class="dot" cx="849.0" cy="343.0" r="4.2" fill="#ff7f0e"/>
<circle class="dot" cx="857.5" cy="343.0" r="4.2" fill="#ff7f0e"/>
<circle class="dot" cx="866.0" cy="343.0" r="4.2" fill="#ff7f0e"/>
<circle class="dot" cx="874.4" cy="343.0" r="4.2" fill="#ff7f0e"/>
<circle class="dot" cx="882.9" cy="343.0" r="4.2" fill="#ff7f0e"/>
<circle class="dot" cx="891.3" cy="343.0" r="4.2" fill="#ff7f0e"/>
<circle class="dot" cx="899.8" cy="343.0" r="4.2" fill="#ff7f0e"/>
<circle class="dot" cx="908.2" cy="343.0" r="4.2" fill="#ff7f0e"/>
<circle class="dot" cx="916.7" cy="343.0" r="4.2" fill="#ff7f0e"/>
<circle class="dot" cx="925.1" cy="343.0" r="4.2" fill="#ff7f0e"/>
<circle class="dot" cx="933.6" cy="343.0" r="4.2" fill="#ff7f0e"/>
<circle class="dot" cx="942.1" cy="343.0" r="4.2" fill="#ff7f0e"/>
<circle class="dot" cx="950.5" cy="343.0" r="4.2" fill="#ff7f0e"/>
<circle class="dot" cx="959.0" cy="343.0" r="4.2" fill="#ff7f0e"/>
<circle class="dot" cx="967.4" cy="343.0" r="4.2" fill="#ff7f0e"/>
<circle class="dot" cx="975.9" cy="343.0" r="4.2" fill="#ff7f0e"/>
<circle class="dot" cx="984.3" cy="343.0" r="4.2" fill="#ff7f0e"/>
<circle class="dot" cx="992.8" cy="343.0" r="4.2" fill="#ff7f0e"/>
<circle class="dot" cx="1001.2" cy="343.0" r="4.2" fill="#ff7f0e"/>
<circle class="dot" cx="1009.7" cy="343.0" r="4.2" fill="#ff7f0e"/>
<circle class="dot" cx="1018.2" cy="343.0" r="4.2" fill="#ff7f0e"/>
<circle class="dot" cx="1026.6" cy="343.0" r="4.2" fill="#ff7f0e"/>
<circle class="dot" cx="1035.1" cy="343.0" r="4.2" fill="#ff7f0e"/>
<circle class="dot" cx="1043.5" cy="343.0" r="4.2" fill="#ff7f0e"/>
<circle class="dot" cx="1052.0" cy="343.0" r="4.2" fill="#ff7f0e"/>
<circle class="dot" cx="1060.4" cy="343.0" r="4.2" fill="#ff7f0e"/>
<circle class="dot" cx="1068.9" cy="343.0" r="4.2" fill="#ff7f0e"/>
<circle class="dot" cx="1077.4" cy="343.0" r="4.2" fill="#ff7f0e"/>
<circle class="dot" cx="1085.8" cy="343.0" r="4.2" fill="#ff7f0e"/>
<circle class="dot" cx="1094.3" cy="343.0" r="4.2" fill="#ff7f0e"/>
<circle class="dot" cx="1102.7" cy="343.0" r="4.2" fill="#ff7f0e"/>
<circle class="dot" cx="1111.2" cy="343.0" r="4.2" fill="#ff7f0e"/>
<circle class="dot" cx="1119.6" cy="343.0" r="4.2" fill="#ff7f0e"/>
<circle class="dot" cx="1128.1" cy="343.0" r="4.2" fill="#ff7f0e"/>
<circle class="dot" cx="1136.5" cy="343.0" r="4.2" fill="#ff7f0e"/>
<circle class="dot" cx="1145.0" cy="343.0" r="4.2" fill="#ff7f0e"/>
<line x1="100" y1="100" x2="124" y2="100" stroke="#ff7f0e" stroke-width="3"/>
<text x="132" y="104" font-size="13">AdaptiveResidualScaling</text>
<polyline class="line" points="88.0,340.7 96.5,340.9 104.9,341.4 113.4,341.6 121.8,341.3 130.3,341.5 138.7,342.5 147.2,343.1 155.6,343.9 164.1,342.8 172.6,340.1 181.0,337.9 189.5,338.2 197.9,340.0 206.4,342.0 214.8,343.8 223.3,344.0 231.8,342.2 240.2,340.2 248.7,338.4 257.1,335.9 265.6,333.9 274.0,331.1 282.5,329.9 290.9,330.6 299.4,336.1 307.9,340.0 316.3,333.6 324.8,334.9 333.2,336.0 341.7,335.9 350.1,335.8 358.6,338.3 367.0,335.5 375.5,337.0 384.0,342.4 392.4,349.4 400.9,347.5 409.3,334.4 417.8,334.2 426.2,336.5 434.7,335.8 443.2,340.0 451.6,352.3 460.1,346.5 468.5,344.2 477.0,345.0 485.4,345.4 493.9,348.2 502.3,348.3 510.8,350.9 519.3,343.0 527.7,346.9 536.2,342.5 544.6,341.7 553.1,348.0 561.5,342.9 570.0,343.0 578.4,348.1 586.9,339.0 595.4,339.9 603.8,346.4 612.3,341.8 620.7,342.0 629.2,340.3 637.6,338.4 646.1,341.5 654.6,338.6 663.0,340.7 671.5,338.2 679.9,340.3 688.4,342.3 696.8,340.8 705.3,341.0 713.7,342.2 722.2,339.9 730.7,343.1 739.1,340.6 747.6,338.7 756.0,340.7 764.5,342.5 772.9,342.3 781.4,338.2 789.8,341.8 798.3,340.8 806.8,339.3 815.2,340.7 823.7,342.5 832.1,342.5 840.6,339.0 849.0,339.0 857.5,341.2 866.0,341.7 874.4,340.4 882.9,341.9 891.3,342.7 899.8,340.3 908.2,337.2 916.7,340.7 925.1,342.4 933.6,340.0 942.1,341.3 950.5,342.8 959.0,342.0 967.4,337.9 975.9,339.7 984.3,341.2 992.8,341.3 1001.2,340.9 1009.7,342.6 1018.2,343.0 1026.6,339.2 1035.1,337.6 1043.5,340.8 1052.0,342.2 1060.4,340.3 1068.9,341.7 1077.4,342.7 1085.8,341.3 1094.3,337.3 1102.7,340.4 1111.2,341.6 1119.6,340.5 1128.1,341.3 1136.5,342.9 1145.0,342.4" stroke="#d62728"/>
<circle class="dot" cx="88.0" cy="340.7" r="4.2" fill="#d62728"/>
<circle class="dot" cx="96.5" cy="340.9" r="4.2" fill="#d62728"/>
<circle class="dot" cx="104.9" cy="341.4" r="4.2" fill="#d62728"/>
<circle class="dot" cx="113.4" cy="341.6" r="4.2" fill="#d62728"/>
<circle class="dot" cx="121.8" cy="341.3" r="4.2" fill="#d62728"/>
<circle class="dot" cx="130.3" cy="341.5" r="4.2" fill="#d62728"/>
<circle class="dot" cx="138.7" cy="342.5" r="4.2" fill="#d62728"/>
<circle class="dot" cx="147.2" cy="343.1" r="4.2" fill="#d62728"/>
<circle class="dot" cx="155.6" cy="343.9" r="4.2" fill="#d62728"/>
<circle class="dot" cx="164.1" cy="342.8" r="4.2" fill="#d62728"/>
<circle class="dot" cx="172.6" cy="340.1" r="4.2" fill="#d62728"/>
<circle class="dot" cx="181.0" cy="337.9" r="4.2" fill="#d62728"/>
<circle class="dot" cx="189.5" cy="338.2" r="4.2" fill="#d62728"/>
<circle class="dot" cx="197.9" cy="340.0" r="4.2" fill="#d62728"/>
<circle class="dot" cx="206.4" cy="342.0" r="4.2" fill="#d62728"/>
<circle class="dot" cx="214.8" cy="343.8" r="4.2" fill="#d62728"/>
<circle class="dot" cx="223.3" cy="344.0" r="4.2" fill="#d62728"/>
<circle class="dot" cx="231.8" cy="342.2" r="4.2" fill="#d62728"/>
<circle class="dot" cx="240.2" cy="340.2" r="4.2" fill="#d62728"/>
<circle class="dot" cx="248.7" cy="338.4" r="4.2" fill="#d62728"/>
<circle class="dot" cx="257.1" cy="335.9" r="4.2" fill="#d62728"/>
<circle class="dot" cx="265.6" cy="333.9" r="4.2" fill="#d62728"/>
<circle class="dot" cx="274.0" cy="331.1" r="4.2" fill="#d62728"/>
<circle class="dot" cx="282.5" cy="329.9" r="4.2" fill="#d62728"/>
<circle class="dot" cx="290.9" cy="330.6" r="4.2" fill="#d62728"/>
<circle class="dot" cx="299.4" cy="336.1" r="4.2" fill="#d62728"/>
<circle class="dot" cx="307.9" cy="340.0" r="4.2" fill="#d62728"/>
<circle class="dot" cx="316.3" cy="333.6" r="4.2" fill="#d62728"/>
<circle class="dot" cx="324.8" cy="334.9" r="4.2" fill="#d62728"/>
<circle class="dot" cx="333.2" cy="336.0" r="4.2" fill="#d62728"/>
<circle class="dot" cx="341.7" cy="335.9" r="4.2" fill="#d62728"/>
<circle class="dot" cx="350.1" cy="335.8" r="4.2" fill="#d62728"/>
<circle class="dot" cx="358.6" cy="338.3" r="4.2" fill="#d62728"/>
<circle class="dot" cx="367.0" cy="335.5" r="4.2" fill="#d62728"/>
<circle class="dot" cx="375.5" cy="337.0" r="4.2" fill="#d62728"/>
<circle class="dot" cx="384.0" cy="342.4" r="4.2" fill="#d62728"/>
<circle class="dot" cx="392.4" cy="349.4" r="4.2" fill="#d62728"/>
<circle class="dot" cx="400.9" cy="347.5" r="4.2" fill="#d62728"/>
<circle class="dot" cx="409.3" cy="334.4" r="4.2" fill="#d62728"/>
<circle class="dot" cx="417.8" cy="334.2" r="4.2" fill="#d62728"/>
<circle class="dot" cx="426.2" cy="336.5" r="4.2" fill="#d62728"/>
<circle class="dot" cx="434.7" cy="335.8" r="4.2" fill="#d62728"/>
<circle class="dot" cx="443.2" cy="340.0" r="4.2" fill="#d62728"/>
<circle class="dot" cx="451.6" cy="352.3" r="4.2" fill="#d62728"/>
<circle class="dot" cx="460.1" cy="346.5" r="4.2" fill="#d62728"/>
<circle class="dot" cx="468.5" cy="344.2" r="4.2" fill="#d62728"/>
<circle class="dot" cx="477.0" cy="345.0" r="4.2" fill="#d62728"/>
<circle class="dot" cx="485.4" cy="345.4" r="4.2" fill="#d62728"/>
<circle class="dot" cx="493.9" cy="348.2" r="4.2" fill="#d62728"/>
<circle class="dot" cx="502.3" cy="348.3" r="4.2" fill="#d62728"/>
<circle class="dot" cx="510.8" cy="350.9" r="4.2" fill="#d62728"/>
<circle class="dot" cx="519.3" cy="343.0" r="4.2" fill="#d62728"/>
<circle class="dot" cx="527.7" cy="346.9" r="4.2" fill="#d62728"/>
<circle class="dot" cx="536.2" cy="342.5" r="4.2" fill="#d62728"/>
<circle class="dot" cx="544.6" cy="341.7" r="4.2" fill="#d62728"/>
<circle class="dot" cx="553.1" cy="348.0" r="4.2" fill="#d62728"/>
<circle class="dot" cx="561.5" cy="342.9" r="4.2" fill="#d62728"/>
<circle class="dot" cx="570.0" cy="343.0" r="4.2" fill="#d62728"/>
<circle class="dot" cx="578.4" cy="348.1" r="4.2" fill="#d62728"/>
<circle class="dot" cx="586.9" cy="339.0" r="4.2" fill="#d62728"/>
<circle class="dot" cx="595.4" cy="339.9" r="4.2" fill="#d62728"/>
<circle class="dot" cx="603.8" cy="346.4" r="4.2" fill="#d62728"/>
<circle class="dot" cx="612.3" cy="341.8" r="4.2" fill="#d62728"/>
<circle class="dot" cx="620.7" cy="342.0" r="4.2" fill="#d62728"/>
<circle class="dot" cx="629.2" cy="340.3" r="4.2" fill="#d62728"/>
<circle class="dot" cx="637.6" cy="338.4" r="4.2" fill="#d62728"/>
<circle class="dot" cx="646.1" cy="341.5" r="4.2" fill="#d62728"/>
<circle class="dot" cx="654.6" cy="338.6" r="4.2" fill="#d62728"/>
<circle class="dot" cx="663.0" cy="340.7" r="4.2" fill="#d62728"/>
<circle class="dot" cx="671.5" cy="338.2" r="4.2" fill="#d62728"/>
<circle class="dot" cx="679.9" cy="340.3" r="4.2" fill="#d62728"/>
<circle class="dot" cx="688.4" cy="342.3" r="4.2" fill="#d62728"/>
<circle class="dot" cx="696.8" cy="340.8" r="4.2" fill="#d62728"/>
<circle class="dot" cx="705.3" cy="341.0" r="4.2" fill="#d62728"/>
<circle class="dot" cx="713.7" cy="342.2" r="4.2" fill="#d62728"/>
<circle class="dot" cx="722.2" cy="339.9" r="4.2" fill="#d62728"/>
<circle class="dot" cx="730.7" cy="343.1" r="4.2" fill="#d62728"/>
<circle class="dot" cx="739.1" cy="340.6" r="4.2" fill="#d62728"/>
<circle class="dot" cx="747.6" cy="338.7" r="4.2" fill="#d62728"/>
<circle class="dot" cx="756.0" cy="340.7" r="4.2" fill="#d62728"/>
<circle class="dot" cx="764.5" cy="342.5" r="4.2" fill="#d62728"/>
<circle class="dot" cx="772.9" cy="342.3" r="4.2" fill="#d62728"/>
<circle class="dot" cx="781.4" cy="338.2" r="4.2" fill="#d62728"/>
<circle class="dot" cx="789.8" cy="341.8" r="4.2" fill="#d62728"/>
<circle class="dot" cx="798.3" cy="340.8" r="4.2" fill="#d62728"/>
<circle class="dot" cx="806.8" cy="339.3" r="4.2" fill="#d62728"/>
<circle class="dot" cx="815.2" cy="340.7" r="4.2" fill="#d62728"/>
<circle class="dot" cx="823.7" cy="342.5" r="4.2" fill="#d62728"/>
<circle class="dot" cx="832.1" cy="342.5" r="4.2" fill="#d62728"/>
<circle class="dot" cx="840.6" cy="339.0" r="4.2" fill="#d62728"/>
<circle class="dot" cx="849.0" cy="339.0" r="4.2" fill="#d62728"/>
<circle class="dot" cx="857.5" cy="341.2" r="4.2" fill="#d62728"/>
<circle class="dot" cx="866.0" cy="341.7" r="4.2" fill="#d62728"/>
<circle class="dot" cx="874.4" cy="340.4" r="4.2" fill="#d62728"/>
<circle class="dot" cx="882.9" cy="341.9" r="4.2" fill="#d62728"/>
<circle class="dot" cx="891.3" cy="342.7" r="4.2" fill="#d62728"/>
<circle class="dot" cx="899.8" cy="340.3" r="4.2" fill="#d62728"/>
<circle class="dot" cx="908.2" cy="337.2" r="4.2" fill="#d62728"/>
<circle class="dot" cx="916.7" cy="340.7" r="4.2" fill="#d62728"/>
<circle class="dot" cx="925.1" cy="342.4" r="4.2" fill="#d62728"/>
<circle class="dot" cx="933.6" cy="340.0" r="4.2" fill="#d62728"/>
<circle class="dot" cx="942.1" cy="341.3" r="4.2" fill="#d62728"/>
<circle class="dot" cx="950.5" cy="342.8" r="4.2" fill="#d62728"/>
<circle class="dot" cx="959.0" cy="342.0" r="4.2" fill="#d62728"/>
<circle class="dot" cx="967.4" cy="337.9" r="4.2" fill="#d62728"/>
<circle class="dot" cx="975.9" cy="339.7" r="4.2" fill="#d62728"/>
<circle class="dot" cx="984.3" cy="341.2" r="4.2" fill="#d62728"/>
<circle class="dot" cx="992.8" cy="341.3" r="4.2" fill="#d62728"/>
<circle class="dot" cx="1001.2" cy="340.9" r="4.2" fill="#d62728"/>
<circle class="dot" cx="1009.7" cy="342.6" r="4.2" fill="#d62728"/>
<circle class="dot" cx="1018.2" cy="343.0" r="4.2" fill="#d62728"/>
<circle class="dot" cx="1026.6" cy="339.2" r="4.2" fill="#d62728"/>
<circle class="dot" cx="1035.1" cy="337.6" r="4.2" fill="#d62728"/>
<circle class="dot" cx="1043.5" cy="340.8" r="4.2" fill="#d62728"/>
<circle class="dot" cx="1052.0" cy="342.2" r="4.2" fill="#d62728"/>
<circle class="dot" cx="1060.4" cy="340.3" r="4.2" fill="#d62728"/>
<circle class="dot" cx="1068.9" cy="341.7" r="4.2" fill="#d62728"/>
<circle class="dot" cx="1077.4" cy="342.7" r="4.2" fill="#d62728"/>
<circle class="dot" cx="1085.8" cy="341.3" r="4.2" fill="#d62728"/>
<circle class="dot" cx="1094.3" cy="337.3" r="4.2" fill="#d62728"/>
<circle class="dot" cx="1102.7" cy="340.4" r="4.2" fill="#d62728"/>
<circle class="dot" cx="1111.2" cy="341.6" r="4.2" fill="#d62728"/>
<circle class="dot" cx="1119.6" cy="340.5" r="4.2" fill="#d62728"/>
<circle class="dot" cx="1128.1" cy="341.3" r="4.2" fill="#d62728"/>
<circle class="dot" cx="1136.5" cy="342.9" r="4.2" fill="#d62728"/>
<circle class="dot" cx="1145.0" cy="342.4" r="4.2" fill="#d62728"/>
<line x1="100" y1="122" x2="124" y2="122" stroke="#d62728" stroke-width="3"/>
<text x="132" y="126" font-size="13">DualAdaptiveClosure</text>
</svg>
