<svg xmlns="http://www.w3.org/2000/svg" width="1240" height="720" viewBox="0 0 1240 720">
<style>text{font-family:Arial,sans-serif;fill:#1d2733}.axis{stroke:#536575;stroke-width:1.2}.grid{stroke:#d9e2ec;stroke-width:1}.line{fill:none;stroke-width:2.4}.dot{stroke:white;stroke-width:1}</style>
<rect width="1240" height="720" fill="#f8fafc"/>
<text x="82" y="34" font-size="22" font-weight="700">24-step pressure rollout relative L2 vs Re</text>
<line class="axis" x1="82" y1="628" x2="1208" y2="628"/>
<line class="axis" x1="82" y1="58" x2="82" y2="628"/>
<line class="grid" x1="82" y1="657.7" x2="1208" y2="657.7"/>
<text x="16" y="661.7" font-size="12">0.01000</text>
<line class="grid" x1="82" y1="540.1" x2="1208" y2="540.1"/>
<text x="16" y="544.1" font-size="12">0.10000</text>
<line class="grid" x1="82" y1="422.5" x2="1208" y2="422.5"/>
<text x="16" y="426.5" font-size="12">1</text>
<line class="grid" x1="82" y1="305.0" x2="1208" y2="305.0"/>
<text x="16" y="309.0" font-size="12">10</text>
<line class="grid" x1="82" y1="187.4" x2="1208" y2="187.4"/>
<text x="16" y="191.4" font-size="12">100</text>
<line class="grid" x1="82" y1="69.8" x2="1208" y2="69.8"/>
<text x="16" y="73.8" font-size="12">1e+03</text>
<line class="grid" x1="82" y1="-47.7" x2="1208" y2="-47.7"/>
<text x="16" y="-43.7" font-size="12">1e+04</text>
<text x="67.0" y="656" font-size="12">25</text>
<text x="254.7" y="656" font-size="12">52</text>
<text x="442.3" y="656" font-size="12">80</text>
<text x="630.0" y="656" font-size="12">107</text>
<text x="817.7" y="656" font-size="12">135</text>
<text x="1005.3" y="656" font-size="12">162</text>
<text x="1193.0" y="656" font-size="12">190</text>
<polyline class="line" points="82.0,343.8 137.3,362.3 184.6,414.5 221.8,438.1 235.0,387.2 248.2,394.1 267.1,258.0 393.3,488.3 598.0,547.0 929.9,570.7 1208.0,556.9" stroke="#596579"/>
<circle class="dot" cx="82.0" cy="343.8" r="3.6" fill="#596579"/>
<circle class="dot" cx="137.3" cy="362.3" r="3.6" fill="#596579"/>
<circle class="dot" cx="184.6" cy="414.5" r="3.6" fill="#596579"/>
<circle class="dot" cx="221.8" cy="438.1" r="3.6" fill="#596579"/>
<circle class="dot" cx="235.0" cy="387.2" r="3.6" fill="#596579"/>
<circle class="dot" cx="248.2" cy="394.1" r="3.6" fill="#596579"/>
<circle class="dot" cx="267.1" cy="258.0" r="3.6" fill="#596579"/>
<circle class="dot" cx="393.3" cy="488.3" r="3.6" fill="#596579"/>
<circle class="dot" cx="598.0" cy="547.0" r="3.6" fill="#596579"/>
<circle class="dot" cx="929.9" cy="570.7" r="3.6" fill="#596579"/>
<circle class="dot" cx="1208.0" cy="556.9" r="3.6" fill="#596579"/>
<line x1="94" y1="76" x2="118" y2="76" stroke="#596579" stroke-width="3"/>
<text x="126" y="80" font-size="12">V15_Base</text>
<polyline class="line" points="82.0,401.7 137.3,395.6 184.6,445.5 221.8,480.4 235.0,402.7 248.2,439.3 267.1,306.8 393.3,513.2 598.0,574.2 929.9,582.9 1208.0,573.4" stroke="#2c7fb8"/>
<circle class="dot" cx="82.0" cy="401.7" r="3.6" fill="#2c7fb8"/>
<circle class="dot" cx="137.3" cy="395.6" r="3.6" fill="#2c7fb8"/>
<circle class="dot" cx="184.6" cy="445.5" r="3.6" fill="#2c7fb8"/>
<circle class="dot" cx="221.8" cy="480.4" r="3.6" fill="#2c7fb8"/>
<circle class="dot" cx="235.0" cy="402.7" r="3.6" fill="#2c7fb8"/>
<circle class="dot" cx="248.2" cy="439.3" r="3.6" fill="#2c7fb8"/>
<circle class="dot" cx="267.1" cy="306.8" r="3.6" fill="#2c7fb8"/>
<circle class="dot" cx="393.3" cy="513.2" r="3.6" fill="#2c7fb8"/>
<circle class="dot" cx="598.0" cy="574.2" r="3.6" fill="#2c7fb8"/>
<circle class="dot" cx="929.9" cy="582.9" r="3.6" fill="#2c7fb8"/>
<circle class="dot" cx="1208.0" cy="573.4" r="3.6" fill="#2c7fb8"/>
<line x1="94" y1="98" x2="118" y2="98" stroke="#2c7fb8" stroke-width="3"/>
<text x="126" y="102" font-size="12">V15_LargeROM</text>
<polyline class="line" points="82.0,433.0 137.3,418.2 184.6,449.2 221.8,452.0 235.0,409.5 248.2,424.5 267.1,330.8 393.3,525.4 598.0,564.2 929.9,569.7 1208.0,560.8" stroke="#41ab5d"/>
<circle class="dot" cx="82.0" cy="433.0" r="3.6" fill="#41ab5d"/>
<circle class="dot" cx="137.3" cy="418.2" r="3.6" fill="#41ab5d"/>
<circle class="dot" cx="184.6" cy="449.2" r="3.6" fill="#41ab5d"/>
<circle class="dot" cx="221.8" cy="452.0" r="3.6" fill="#41ab5d"/>
<circle class="dot" cx="235.0" cy="409.5" r="3.6" fill="#41ab5d"/>
<circle class="dot" cx="248.2" cy="424.5" r="3.6" fill="#41ab5d"/>
<circle class="dot" cx="267.1" cy="330.8" r="3.6" fill="#41ab5d"/>
<circle class="dot" cx="393.3" cy="525.4" r="3.6" fill="#41ab5d"/>
<circle class="dot" cx="598.0" cy="564.2" r="3.6" fill="#41ab5d"/>
<circle class="dot" cx="929.9" cy="569.7" r="3.6" fill="#41ab5d"/>
<circle class="dot" cx="1208.0" cy="560.8" r="3.6" fill="#41ab5d"/>
<line x1="94" y1="120" x2="118" y2="120" stroke="#41ab5d" stroke-width="3"/>
<text x="126" y="124" font-size="12">V15_BalancedTraining</text>
<polyline class="line" points="82.0,405.4 137.3,425.3 184.6,439.5 221.8,446.8 235.0,451.9 248.2,452.8 267.1,375.4 393.3,536.1 598.0,601.4 929.9,613.3 1208.0,593.5" stroke="#d95f02"/>
<circle class="dot" cx="82.0" cy="405.4" r="3.6" fill="#d95f02"/>
<circle class="dot" cx="137.3" cy="425.3" r="3.6" fill="#d95f02"/>
<circle class="dot" cx="184.6" cy="439.5" r="3.6" fill="#d95f02"/>
<circle class="dot" cx="221.8" cy="446.8" r="3.6" fill="#d95f02"/>
<circle class="dot" cx="235.0" cy="451.9" r="3.6" fill="#d95f02"/>
<circle class="dot" cx="248.2" cy="452.8" r="3.6" fill="#d95f02"/>
<circle class="dot" cx="267.1" cy="375.4" r="3.6" fill="#d95f02"/>
<circle class="dot" cx="393.3" cy="536.1" r="3.6" fill="#d95f02"/>
<circle class="dot" cx="598.0" cy="601.4" r="3.6" fill="#d95f02"/>
<circle class="dot" cx="929.9" cy="613.3" r="3.6" fill="#d95f02"/>
<circle class="dot" cx="1208.0" cy="593.5" r="3.6" fill="#d95f02"/>
<line x1="394" y1="76" x2="418" y2="76" stroke="#d95f02" stroke-width="3"/>
<text x="426" y="80" font-size="12">V15_1_AdaptiveGate</text>
<polyline class="line" points="82.0,113.9 137.3,122.4 184.6,152.0 221.8,174.2 235.0,153.3 248.2,169.2 267.1,69.4 393.3,423.4 598.0,440.6 929.9,503.8 1208.0,496.8" stroke="#7570b3"/>
<circle class="dot" cx="82.0" cy="113.9" r="3.6" fill="#7570b3"/>
<circle class="dot" cx="137.3" cy="122.4" r="3.6" fill="#7570b3"/>
<circle class="dot" cx="184.6" cy="152.0" r="3.6" fill="#7570b3"/>
<circle class="dot" cx="221.8" cy="174.2" r="3.6" fill="#7570b3"/>
<circle class="dot" cx="235.0" cy="153.3" r="3.6" fill="#7570b3"/>
<circle class="dot" cx="248.2" cy="169.2" r="3.6" fill="#7570b3"/>
<circle class="dot" cx="267.1" cy="69.4" r="3.6" fill="#7570b3"/>
<circle class="dot" cx="393.3" cy="423.4" r="3.6" fill="#7570b3"/>
<circle class="dot" cx="598.0" cy="440.6" r="3.6" fill="#7570b3"/>
<circle class="dot" cx="929.9" cy="503.8" r="3.6" fill="#7570b3"/>
<circle class="dot" cx="1208.0" cy="496.8" r="3.6" fill="#7570b3"/>
<line x1="394" y1="98" x2="418" y2="98" stroke="#7570b3" stroke-width="3"/>
<text x="426" y="102" font-size="12">V15_1_FiLMBase</text>
<polyline class="line" points="82.0,219.4 137.3,204.0 184.6,212.0 221.8,216.7 235.0,192.1 248.2,202.2 267.1,92.8 393.3,403.8 598.0,425.2 929.9,440.2 1208.0,442.7" stroke="#e7298a"/>
<circle class="dot" cx="82.0" cy="219.4" r="3.6" fill="#e7298a"/>
<circle class="dot" cx="137.3" cy="204.0" r="3.6" fill="#e7298a"/>
<circle class="dot" cx="184.6" cy="212.0" r="3.6" fill="#e7298a"/>
<circle class="dot" cx="221.8" cy="216.7" r="3.6" fill="#e7298a"/>
<circle class="dot" cx="235.0" cy="192.1" r="3.6" fill="#e7298a"/>
<circle class="dot" cx="248.2" cy="202.2" r="3.6" fill="#e7298a"/>
<circle class="dot" cx="267.1" cy="92.8" r="3.6" fill="#e7298a"/>
<circle class="dot" cx="393.3" cy="403.8" r="3.6" fill="#e7298a"/>
<circle class="dot" cx="598.0" cy="425.2" r="3.6" fill="#e7298a"/>
<circle class="dot" cx="929.9" cy="440.2" r="3.6" fill="#e7298a"/>
<circle class="dot" cx="1208.0" cy="442.7" r="3.6" fill="#e7298a"/>
<line x1="394" y1="120" x2="418" y2="120" stroke="#e7298a" stroke-width="3"/>
<text x="426" y="124" font-size="12">V15_1_RegimeAwareROM</text>
</svg>